<?xml version="1.0" encoding="UTF-8"?>
<svg width="684px" height="680px" viewBox="0 0 684 680" version="1.1" xmlns="http://www.w3.org/2000/svg" xmlns:xlink="http://www.w3.org/1999/xlink">
    <!-- Generator: Sketch 64 (93537) - https://sketch.com -->
    <title>shape01</title>
    <desc>Created with Sketch.</desc>
    <defs>
        <rect id="path-1" x="0" y="0" width="1440" height="680"></rect>
    </defs>
    <g id="Page-1" stroke="none" stroke-width="1" fill="none" fill-rule="evenodd">
        <g id="shape01">
            <mask id="mask-2" fill="white">
                <use xlink:href="#path-1"></use>
            </mask>
            <g id="Mask" opacity="0.8"></g>
            <path d="M1440,2031.5 L1440,686.575818 L1440,568.54899 C1439.95682,210.5431 1439.52322,31.3620068 1438.69922,31.0057113 C1403,15.5694601 1292.50003,-4.92978111 1202.50005,1.0699968 C892.794382,21.7162813 771.000139,258.452582 771.000139,568.54899 C771.000139,609.305018 765.987944,645.829115 756.771801,678.595103 C651.683685,1052.21302 0,937.202871 0,1036.03169 C0,1072.32902 0,1404.15179 0,2031.5 C77.3335164,2411.83333 317.333566,2602 720.000149,2602 C1122.66673,2602 1362.66668,2411.83333 1440,2031.5 Z" id="Oval-Copy-2" fill="#F2F2F2" mask="url(#mask-2)" transform="translate(720.000000, 1301.000000) scale(-1, 1) translate(-720.000000, -1301.000000) "></path>
        </g>
    </g>
</svg>