<?xml version="1.0" encoding="UTF-8"?>
<svg width="1440px" height="1079px" viewBox="0 0 1440 1079" version="1.1" xmlns="http://www.w3.org/2000/svg" xmlns:xlink="http://www.w3.org/1999/xlink">
    <!-- Generator: Sketch 64 (93537) - https://sketch.com -->
    <title>shape02</title>
    <desc>Created with Sketch.</desc>
    <defs>
        <rect id="path-1" x="0" y="0" width="1440" height="1079"></rect>
    </defs>
    <g id="Page-1" stroke="none" stroke-width="1" fill="none" fill-rule="evenodd">
        <g id="shape02">
            <mask id="mask-2" fill="white">
                <use xlink:href="#path-1"></use>
            </mask>
            <g id="Mask" opacity="0.8"></g>
            <path d="M1440,-280.5 L1440,-1743.45101 C1439.95682,-2101.4569 1439.52322,-2280.63799 1438.69922,-2280.99429 C1403,-2296.43054 1292.50003,-2316.92978 1202.50005,-2310.93 C892.794382,-2290.28372 771.000139,-2053.54742 771.000139,-1743.45101 C771.000139,-1237.96972 0,-1383.46434 0,-1275.96831 C0,-1239.67098 0,-907.848209 0,-280.5 C77.3335164,99.8333333 317.333566,290 720.000149,290 C1122.66673,290 1362.66668,99.8333333 1440,-280.5 Z" id="Oval-Copy-2" fill="#F2F2F2" mask="url(#mask-2)" transform="translate(720.000000, -1011.000000) scale(-1, 1) translate(-720.000000, 1011.000000) "></path>
            <path d="M1440,508.5 L1440,-954.45101 C1439.95682,-1312.4569 1439.52322,-1491.63799 1438.69922,-1491.99429 C1403,-1507.43054 1292.50003,-1527.92978 1202.50005,-1521.93 C892.794382,-1501.28372 771.000139,-1264.54742 771.000139,-954.45101 C771.000139,-448.969721 0,-594.464335 0,-486.968315 C0,-450.670981 0,-118.848209 0,508.5 C77.3335164,888.833333 317.333566,1079 720.000149,1079 C1122.66673,1079 1362.66668,888.833333 1440,508.5 Z" id="Oval-Copy-4" fill="#F2F2F2" mask="url(#mask-2)" transform="translate(720.000000, -222.000000) scale(1, -1) translate(-720.000000, 222.000000) "></path>
        </g>
    </g>
</svg>