<?xml version="1.0" encoding="UTF-8"?>
<svg width="165px" height="36px" viewBox="0 0 165 36" version="1.1" xmlns="http://www.w3.org/2000/svg" xmlns:xlink="http://www.w3.org/1999/xlink">
    <!-- Generator: Sketch 63.1 (92452) - https://sketch.com -->
    <title>logo copy</title>
    <desc>Created with Sketch.</desc>
    <g id="Page-1" stroke="none" stroke-width="1" fill="none" fill-rule="evenodd">
        <g id="logo-copy">
            <g id="travelz" transform="translate(36.252632, 9.821053)" fill-rule="nonzero">
                <path d="M8.49473684,22.2631579 C9.66315789,22.2315789 10.5789474,22.0421053 11.6842105,21.6 L10.6105263,18.3157895 C10.0421053,18.6 9.34736842,18.7894737 8.74736842,18.7894737 C7.54736842,18.7894737 6.72631579,18.0631579 6.72631579,16.5789474 L6.72631579,9.85263158 L11.0526316,9.85263158 L11.0526316,6.53684211 L6.75789474,6.53684211 L6.75789474,2.11578947 L2.90526316,2.52631579 L2.90526316,6.53684211 L0,6.53684211 L0,9.85263158 L2.90526316,9.85263158 L2.90526316,16.5789474 C2.90526316,20.4631579 5.11578947,22.3894737 8.49473684,22.2631579 Z M18.5052632,22.0736842 L18.5052632,13.8631579 C18.5052632,10.9894737 20.3684211,9.91578947 22.3894737,9.91578947 C23.6526316,9.91578947 24.3789474,10.2631579 25.1684211,10.9263158 L26.9052632,7.57894737 C26.0526316,6.72631579 24.5052632,6.09473684 22.8947368,6.09473684 C21.3157895,6.09473684 19.7052632,6.37894737 18.5052632,8.30526316 L18.2210526,6.50526316 L14.6526316,6.50526316 L14.6526316,22.0736842 L18.5052632,22.0736842 Z M36.2526316,22.5473684 C37.9894737,22.5157895 40.4210526,21.6315789 41.3052632,19.8 L41.4947368,22.0736842 L45.1263158,22.0736842 L45.1263158,6.50526316 L41.4315789,6.50526316 L41.3052632,8.65263158 C40.4210526,7.10526316 38.4315789,6.12631579 36.3473684,6.12631579 C31.8,6.09473684 28.2315789,8.90526316 28.2315789,14.2736842 C28.2315789,19.7368421 31.6421053,22.5789474 36.2526316,22.5473684 Z M36.6947368,19.0105263 C34.1368421,19.0105263 32.0842105,17.2421053 32.0842105,14.2736842 C32.0842105,11.3052632 34.1368421,9.56842105 36.6947368,9.56842105 C42.7578947,9.56842105 42.7578947,19.0105263 36.6947368,19.0105263 Z M57.6315789,22.1368421 L64.2631579,6.47368421 L60.0631579,6.47368421 L57.9157895,11.6842105 L55.5473684,18.1894737 L53.1473684,11.6210526 L51,6.47368421 L46.8,6.47368421 L53.4631579,22.1368421 L57.6315789,22.1368421 Z M74.7157895,22.4842105 C77.0842105,22.4842105 79.7684211,21.6631579 81.4105263,19.9578947 L78.9473684,17.5263158 C78.0631579,18.4421053 76.2,18.9789474 74.7789474,18.9789474 C72.0631579,18.9789474 70.3894737,17.5894737 70.1368421,15.6631579 L82.2947368,15.6631579 C82.8947368,9.25263158 79.6421053,6.03157895 74.4315789,6.03157895 C69.3789474,6.03157895 66.1578947,9.44210526 66.1578947,14.1789474 C66.1578947,19.1684211 69.3473684,22.4842105 74.7157895,22.4842105 Z M78.6,12.4736842 L70.2,12.4736842 C70.7684211,10.4526316 72.4736842,9.44210526 74.5578947,9.44210526 C76.7684211,9.44210526 78.3473684,10.4526316 78.6,12.4736842 Z M89.8105263,22.0736842 L89.8105263,0 L85.9894737,0 L85.9894737,22.0736842 L89.8105263,22.0736842 Z" id="travel" fill="#000202"></path>
                <polygon id="z" fill="#C0C4BC" points="106.042105 22.0736842 106.042105 18.2842105 98.8105263 18.2842105 105.978947 8.33684211 105.978947 6.50526316 93.5052632 6.50526316 93.5052632 10.0105263 100.389474 10.0105263 92.9368421 20.4631579 92.9368421 22.0736842"></polygon>
            </g>
            <path d="M149.182737,29.9128421 C149.182737,28.3528421 146.818105,28.3528421 146.818105,29.9128421 C146.818105,31.4728421 149.182737,31.4728421 149.182737,29.9128421 Z M151.530947,20.5528421 C151.530947,22.1128421 153.895579,22.1128421 153.895579,20.5528421 C153.895579,18.9928421 151.530947,18.9928421 151.530947,20.5528421 Z M151.005474,35.9722105 C152.828211,35.9722105 153.698526,34.6749474 153.698526,32.6715789 L153.698526,32.6715789 L153.698526,22.8189474 L151.711579,22.8189474 L151.711579,32.6715789 C151.711579,33.5583158 151.563789,34.0673684 150.906947,34.1002105 C150.611368,34.1166316 150.282947,34.0345263 149.938105,33.8703158 L149.938105,33.8703158 L149.215579,35.4303158 C149.790316,35.808 150.414316,35.9722105 151.005474,35.9722105 Z M157.787368,34.3301053 L157.787368,29.9949474 C158.362105,30.8816842 159.626526,31.1444211 160.480421,31.1444211 C163.074947,31.1444211 164.569263,29.2724211 164.569263,26.9077895 C164.569263,24.5267368 162.910737,22.6711579 160.414737,22.6711579 C159.495158,22.6711579 158.411368,23.0652632 157.787368,23.9684211 L157.656,22.8517895 L155.784,22.8517895 L155.784,34.3301053 L157.787368,34.3301053 Z M160.266947,29.2067368 C158.904,29.2067368 157.968,28.1722105 157.968,26.9077895 C157.968,25.6433684 158.821895,24.6088421 160.266947,24.6088421 C161.712,24.6088421 162.565895,25.6433684 162.565895,26.9077895 C162.565895,28.1722105 161.629895,29.2067368 160.266947,29.2067368 Z" id=".jp" fill="#000202" fill-rule="nonzero"></path>
            <path d="M14.7007368,19.5633684 L21.535,31.484 L12.1470054,31.8947368 L9.473,27.33 L14.7007368,19.5633684 Z M28.022,17.113 L30.6315789,21.7947368 L25.395,29.701 L18.4757368,17.6313684 L28.022,17.113 Z M9.412,10.339 L12.3527368,15.4673684 L7.096,23.274 L0,11.1631579 L9.412,10.339 Z M18.4845735,0 L25.717,12.977 L16.1067368,13.5003684 L13.197,8.425 L18.4845735,0 Z" id="Combined-Shape-Copy-22" fill="#FF0000"></path>
        </g>
    </g>
</svg>