<?xml version="1.0" encoding="UTF-8"?>
<svg width="80px" height="69px" viewBox="0 0 80 69" version="1.1" xmlns="http://www.w3.org/2000/svg" xmlns:xlink="http://www.w3.org/1999/xlink">
    <!-- Generator: Sketch 63.1 (92452) - https://sketch.com -->
    <title>agriculture</title>
    <desc>Created with Sketch.</desc>
    <g id="Page-1" stroke="none" stroke-width="1" fill="none" fill-rule="evenodd">
        <g id="agriculture" transform="translate(0.128002, 0.962221)" fill-rule="nonzero">
            <path d="M17.6254019,50.9187788 C17.4559644,47.892409 19.4230353,45.1586787 22.3464167,44.357764 C21.7995345,44.2079684 21.2351339,44.131695 20.668108,44.1309564 C20.5455429,44.1309564 20.4226394,44.1343954 20.2993977,44.1412735 C16.824085,44.3335059 14.1333253,47.2573165 14.229766,50.7366054 C14.3262067,54.2158943 17.1747979,56.9861622 20.6554231,56.9855865 C20.7761842,56.9855865 20.8971144,56.9822037 21.0190594,56.9752693 C21.4707979,56.9498934 21.9186305,56.8772198 22.3552116,56.7584405 C19.6879501,56.0298819 17.7840244,53.6791991 17.6254019,50.9187788 L17.6254019,50.9187788 Z" id="Path" fill-opacity="0.1" fill="#979797"></path>
            <path d="M65.5739854,54.9160726 C65.5726797,53.1208803 66.8163307,51.5647707 68.5676429,51.1702798 C68.2901348,51.1074123 68.0065168,51.0754769 67.721977,51.0750555 C66.246743,51.0734272 64.9009499,51.9169233 64.2593321,53.2453225 C63.6177144,54.5737217 63.7936788,56.1522277 64.7120779,57.3067236 C65.6304771,58.4612195 67.1289827,58.9876466 68.5676429,58.6611889 C66.8184942,58.2636935 65.5764033,56.7098167 65.5739854,54.9160726 L65.5739854,54.9160726 Z" id="Path" fill-opacity="0.1" fill="#979797"></path>
            <path d="M25.8762264,43.4794553 C25.7515753,43.3859246 25.6237106,43.2959458 25.4992285,43.2142545 C22.3594148,41.1456483 18.2518629,41.3018384 15.2782066,43.6029098 C12.3045502,45.9039813 11.1226023,49.840906 12.3371077,53.3993521 C13.5516132,56.9577981 16.893907,59.3505892 20.6539009,59.3534511 C20.8189748,59.3534511 20.9848381,59.3488281 21.1514907,59.3395822 C24.8544828,59.132572 28.0295292,56.6245812 29.0883884,53.0701726 C30.1472476,49.5157639 28.8622665,45.6791298 25.8762264,43.4794553 L25.8762264,43.4794553 Z M25.451533,54.8414849 C24.3183541,56.1162311 22.7222477,56.8845937 21.0190594,56.9752693 C20.8971144,56.9822037 20.7761842,56.9855864 20.6554231,56.9855864 C18.1201209,56.9840063 15.8226486,55.4921291 14.7898365,53.176733 C13.7570245,50.861337 14.1818865,48.1551276 15.8745351,46.267616 C17.0097146,45.0008434 18.601061,44.2361309 20.2993977,44.1412735 C20.4227522,44.1342826 20.5456556,44.1309514 20.668108,44.1309514 C21.9237349,44.1293844 23.1518449,44.4987824 24.198256,45.1927745 C24.2828226,45.2485885 24.3694188,45.3091382 24.4641334,45.3801741 C25.9242162,46.4521809 26.8639626,48.0907008 27.0519787,49.8922807 C27.2399949,51.6938606 26.6588113,53.4911074 25.451533,54.8414849 L25.451533,54.8414849 Z" id="Shape" fill="#1AE5BE"></path>
            <path d="M71.6810467,50.1340008 C71.5964801,50.0633031 71.5105605,49.9953115 71.4241334,49.9310409 C68.6867633,47.882691 64.8114139,48.4147528 62.7273772,51.1250524 C60.6433406,53.8353519 61.1245853,57.7173393 63.8073491,59.836705 C66.4901129,61.9560707 70.3780719,61.5257256 72.5324029,58.8709581 C74.6867339,56.2161906 74.3073623,52.3229272 71.6810467,50.1340008 L71.6810467,50.1340008 Z M67.72333,58.7562418 C66.1688278,58.7561391 64.7676938,57.8189549 64.1741003,56.382249 C63.5805068,54.9455431 63.9115352,53.2926938 65.0126324,52.1953961 C66.3594037,50.8526342 68.4862406,50.6981788 70.0128861,51.8322671 C70.0619347,51.8684616 70.1101376,51.9063475 70.1661207,51.9533665 C71.4178638,52.9837492 71.8874445,54.6893685 71.3394729,56.2152376 C70.7915014,57.7411066 69.3441022,58.7582983 67.7228226,58.7569197 L67.72333,58.7562418 Z" id="Shape" fill="#1AE5BE"></path>
            <path d="M40.2596514,21.5778908 C39.1333935,21.0065589 38.2733512,22.2393707 37.8601588,22.8318443 C37.2940307,23.669061 36.7837746,24.5427285 36.3327169,25.4471509 L36.3327169,25.4471509 C35.8681747,26.3445484 35.4631843,27.2715402 35.1203702,28.2221192 C34.8854442,28.9052481 34.3959727,30.3268126 35.5223998,30.900005 C35.7023733,30.9951768 35.9025009,31.0459191 36.1060784,31.0479965 C36.9454865,31.0479965 37.5841334,30.1326477 37.9227381,29.6470663 C38.488863,28.8100236 38.9991195,27.9365251 39.4501799,27.0322671 C39.9149488,26.134641 40.320055,25.2073602 40.6628649,24.2564532 C40.89796,23.572986 41.3874315,22.1514215 40.2596514,21.5778908 Z" id="Path" fill="#979797"></path>
            <path d="M25.8762264,43.4794553 C25.7515753,43.3859246 25.6237106,43.2959458 25.4992285,43.2142545 C22.3594148,41.1456483 18.2518629,41.3018384 15.2782066,43.6029098 C12.3045502,45.9039813 11.1226023,49.840906 12.3371077,53.3993521 C13.5516132,56.9577981 16.893907,59.3505892 20.6539009,59.3534511 C20.8189748,59.3534511 20.9848381,59.3488281 21.1514907,59.3395822 C24.8544828,59.132572 28.0295292,56.6245812 29.0883884,53.0701726 C30.1472476,49.5157639 28.8622665,45.6791298 25.8762264,43.4794553 L25.8762264,43.4794553 Z M25.451533,54.8414849 C24.3183541,56.1162311 22.7222477,56.8845937 21.0190594,56.9752693 C20.8971144,56.9822037 20.7761842,56.9855864 20.6554231,56.9855864 C18.1201209,56.9840063 15.8226486,55.4921291 14.7898365,53.176733 C13.7570245,50.861337 14.1818865,48.1551276 15.8745351,46.267616 C17.0097146,45.0008434 18.601061,44.2361309 20.2993977,44.1412735 C20.4227522,44.1342826 20.5456556,44.1309514 20.668108,44.1309514 C21.9237349,44.1293844 23.1518449,44.4987824 24.198256,45.1927745 C24.2828226,45.2485885 24.3694188,45.3091382 24.4641334,45.3801741 C25.9242162,46.4521809 26.8639626,48.0907008 27.0519787,49.8922807 C27.2399949,51.6938606 26.6588113,53.4911074 25.451533,54.8414849 L25.451533,54.8414849 Z" id="Shape" fill="#979797"></path>
            <path d="M62.1130129,31.0373411 C62.7668807,31.0373411 63.2969453,30.5072766 63.2969453,29.8534088 L63.2969453,1.84359907 C63.2969453,1.35236439 63.1009171,0.881439383 62.7523256,0.535324615 C62.403734,0.189209848 61.9314232,-0.00346798862 61.4402011,-1.77635684e-14 L59.71944,-1.77635684e-14 C59.2305369,-0.00246825395 58.7610575,0.191239488 58.4161738,0.537776358 C58.0712901,0.884313229 57.8798297,1.35471361 57.8846831,1.84359907 L57.8846831,29.8534088 C57.8846831,30.5072766 58.4147477,31.0373411 59.0686154,31.0373411 C59.7224832,31.0373411 60.2525478,30.5072766 60.2525478,29.8534088 L60.2525478,2.36791196 L60.9290806,2.36791196 L60.9290806,29.8534088 C60.9290806,30.1674072 61.0538159,30.468545 61.2758463,30.6905754 C61.4978767,30.9126058 61.7990145,31.0373411 62.1130129,31.0373411 Z" id="Path" fill="#979797"></path>
            <path d="M71.6810467,50.1340008 C71.5964801,50.0633031 71.5105605,49.9953115 71.4241334,49.9310409 C68.6867633,47.882691 64.8114139,48.4147528 62.7273772,51.1250524 C60.6433406,53.8353519 61.1245853,57.7173393 63.8073491,59.836705 C66.4901129,61.9560707 70.3780719,61.5257256 72.5324029,58.8709581 C74.6867339,56.2161906 74.3073623,52.3229272 71.6810467,50.1340008 L71.6810467,50.1340008 Z M67.72333,58.7562418 C66.1688278,58.7561391 64.7676938,57.8189549 64.1741003,56.382249 C63.5805068,54.9455431 63.9115352,53.2926938 65.0126324,52.1953961 C66.3594037,50.8526342 68.4862406,50.6981788 70.0128861,51.8322671 C70.0619347,51.8684616 70.1101376,51.9063475 70.1661207,51.9533665 C71.4178638,52.9837492 71.8874445,54.6893685 71.3394729,56.2152376 C70.7915014,57.7411066 69.3441022,58.7582983 67.7228226,58.7569197 L67.72333,58.7562418 Z" id="Shape" fill="#979797"></path>
            <path d="M76.3032877,33.1219077 C74.5478543,30.2363263 72.2550848,28.75269 69.6732666,28.75269 L44.863626,28.75269 C43.8376641,28.75269 43.0009622,29.5043179 43.0009622,30.5302798 L43.0009622,31.9090536 L39.0396937,25.6353961 C38.690575,25.0825042 37.9593509,24.9173134 37.406459,25.266432 C36.8535671,25.6155507 36.6883762,26.3467748 37.0374949,26.8996667 L43.0009622,36.3430494 L43.0009622,38.3932819 L37.560793,38.3932819 L33.7525901,30.6425843 C33.4423903,30.0030639 32.7936879,29.597362 32.0829072,29.5983559 L23.8889114,29.5983559 L23.8889114,23.2066435 C23.8889114,19.9175103 22.9304336,17.164191 21.2203279,15.4537471 C19.901089,14.1358612 18.1542814,14.3229225 17.9560573,14.3484616 C17.372051,14.4279294 16.940891,14.9333521 16.9544505,15.5225843 L16.9544505,29.5983559 L8.58607844,29.5983559 C7.85362306,29.6032605 7.19130342,30.0348719 6.89102559,30.7029648 L0.16476766,45.6127323 C-0.11890247,46.2416908 -0.0317658986,46.9759198 0.391237813,47.521012 C0.814241525,48.0661041 1.5038476,48.3328033 2.18354144,48.2141699 L5.1514907,47.6915483 C5.57311337,47.623526 5.92542319,47.3337018 6.07345538,46.9331033 C6.22148756,46.5325047 6.14229559,46.0832288 5.86621675,45.7573865 C5.59013791,45.4315442 5.1599673,45.2796446 4.74049705,45.3598781 L2.71800233,45.7069394 L8.91385857,31.9662206 L31.7669664,31.9662206 L38.5165647,45.7047407 L36.4348734,45.3541276 C35.7926425,45.2509822 35.1872022,45.6844562 35.0779056,46.3256689 C34.9686091,46.9668815 35.39626,47.576449 36.0363956,47.6918866 L39.0977063,48.2146773 C39.786626,48.3337503 40.4839481,48.0551615 40.9011736,47.4941699 C41.3211329,46.9276013 41.3902135,46.1741723 41.0802856,45.5406815 L40.2361419,43.8055441 L43.0009622,43.8055441 L43.0009622,46.5942122 C43.0009622,47.6201741 43.8376641,48.3721403 44.863626,48.3721403 L60.1003279,48.3721403 C60.7541957,48.3721403 61.2842603,47.8420757 61.2842603,47.1882079 C61.2842603,46.5343402 60.7541957,46.0042756 60.1003279,46.0042756 L45.3688269,46.0042756 L45.3688269,31.1205547 L69.6732666,31.1205547 C73.4376641,31.1205547 75.3333089,36.3098993 75.7432877,37.5998781 L73.4449368,46.3066857 C73.3651239,46.6090064 73.4093053,46.93068 73.5676717,47.2002871 C73.726038,47.4698942 73.9854832,47.6651225 74.288404,47.7426266 C74.9221236,47.9072127 75.5693987,47.5274154 75.7348311,46.8939162 L78.1167338,37.8415695 C78.1691722,37.6494061 78.1688217,37.4466581 78.115719,37.2546773 C77.6908058,35.805245 77.0816897,34.4163171 76.3032877,33.1219077 Z M19.3223152,29.5983559 L19.3223152,16.9142122 C19.3223152,16.9703644 19.4970298,17.0405547 19.5846408,17.1281657 C20.3159727,17.8605124 21.5210467,19.6220346 21.5210467,23.2066435 L21.5210467,29.5983559 L19.3223152,29.5983559 Z M39.0721672,41.4376794 L38.7249368,40.7611466 L43.0009622,40.7611466 L43.0009622,41.4376794 L39.0721672,41.4376794 Z" id="Shape" fill="#979797"></path>
            <path d="M61.155719,32.9730705 C60.9914351,32.5807085 60.6292933,32.3066344 60.2070582,32.2551103 C59.7848231,32.2035863 59.3674006,32.3825326 59.113585,32.7238753 C58.8597693,33.0652179 58.8085769,33.5164857 58.9794822,33.9060092 L62.0533089,41.0772566 C62.2199623,41.466034 62.5813668,41.7363707 63.0013847,41.7864333 C63.4214026,41.8364959 63.8362232,41.6586788 64.0895876,41.319964 C64.3429521,40.9812491 64.3963683,40.5330954 64.2297148,40.1443179 L61.155719,32.9730705 Z" id="Path" fill="#979797"></path>
            <path d="M64.7415118,32.9730705 C64.5772279,32.5807085 64.2150861,32.3066344 63.792851,32.2551103 C63.3706159,32.2035863 62.9531935,32.3825326 62.6993778,32.7238753 C62.4455621,33.0652179 62.3943697,33.5164857 62.5652751,33.9060092 L65.6392708,41.0772566 C65.8035548,41.4696186 66.1656966,41.7436927 66.5879317,41.7952168 C67.0101667,41.8467408 67.4275892,41.6677945 67.6814049,41.3264518 C67.9352206,40.9851092 67.9864129,40.5338414 67.8155076,40.1443179 L64.7415118,32.9730705 Z" id="Path" fill="#979797"></path>
            <path d="M68.3273047,32.9730705 C68.1630207,32.5807085 67.8008789,32.3066344 67.3786438,32.2551103 C66.9564087,32.2035863 66.5389863,32.3825326 66.2851706,32.7238753 C66.0313549,33.0652179 65.9801626,33.5164857 66.1510679,33.9060092 L69.2248945,41.0772566 C69.3891785,41.4696186 69.7513203,41.7436927 70.1735554,41.7952168 C70.5957904,41.8467408 71.0132129,41.6677945 71.2670286,41.3264518 C71.5208442,40.9851092 71.5720366,40.5338414 71.4011313,40.1443179 L68.3273047,32.9730705 Z" id="Path" fill="#979797"></path>
            <path d="M75.3529283,45.6815695 C75.1959727,45.5494764 75.0315753,45.4192439 74.8648099,45.2959458 C69.5734313,41.3325734 62.079058,42.3587817 58.0478899,47.5986951 C54.0167218,52.8386085 54.9463581,60.3455726 60.1339377,64.4438683 C65.3215172,68.5421639 72.8398278,67.7092536 77.0045717,62.5748678 C81.1693155,57.440482 80.4332693,49.9120712 75.3529283,45.6815695 L75.3529283,45.6815695 Z M67.7226535,64.5285885 C63.8320793,64.5282362 60.3253327,62.1828038 58.8394069,58.5871687 C57.3534812,54.9915336 58.1814044,50.8547633 60.9366916,48.1079542 C64.3078539,44.7467524 69.6314878,44.3595254 73.4535626,47.1975103 C73.5824421,47.2929014 73.7086154,47.3923517 73.8373258,47.5009352 C76.9671486,50.080978 78.140376,54.3481355 76.7695102,58.1656135 C75.3986444,61.9830915 71.7788107,64.5290489 67.7226535,64.5285885 Z" id="Shape" fill="#979797"></path>
            <path d="M36.7026112,53.4874046 L35.0239643,52.7939585 C35.2541465,51.3084217 35.2534619,49.7962418 35.0219347,48.3109141 L36.6997359,47.6152693 C36.9898581,47.4950023 37.2203071,47.2643895 37.3403678,46.9741819 C37.4604285,46.6839744 37.4602621,46.3579545 37.3399051,46.0678697 L35.6213427,41.9257978 C35.3707636,41.3218652 34.6780526,41.0354063 34.0741123,41.2859669 L32.3978332,41.9812735 C31.5135965,40.7654278 30.4432718,39.6965301 29.2262476,38.8139162 L29.9196937,37.1359458 C30.1695164,36.5318187 29.8824006,35.8395458 29.2783406,35.589561 L25.1345774,33.8747196 C24.8444221,33.7546429 24.5184489,33.7547565 24.2283774,33.8750355 C23.9383059,33.9953145 23.7079006,34.2259047 23.5878543,34.5160726 L22.8927169,36.19658 C21.4076546,35.9653424 19.8957496,35.9653424 18.4106873,36.19658 L17.7148734,34.5189479 C17.4642942,33.9151087 16.7717057,33.6286692 16.1678121,33.879117 L12.0259093,35.5964955 C11.7358597,35.7167958 11.505481,35.9473939 11.3854568,36.237558 C11.2654327,36.5277221 11.2655955,36.8536819 11.3859093,37.1437259 L12.0817233,38.8213581 C10.8692304,39.7089057 9.80152151,40.7788968 8.9165647,41.9932819 L7.23588817,41.2983137 C6.63171438,41.0485103 5.93942206,41.3357097 5.68950339,41.9398359 L3.97533848,46.0835991 C3.72542238,46.6878196 4.01264121,47.3802343 4.61686068,47.630153 L6.29483109,48.3235991 C6.06030381,49.8084721 6.06115997,51.321022 6.29736808,52.8056287 L4.61905942,53.5014426 C4.32896779,53.6217418 4.09855719,53.8523681 3.97852961,54.1425722 C3.85850204,54.4327763 3.85869262,54.7587786 3.97905942,55.0488422 L5.69711438,59.1909141 C5.81741352,59.4810057 6.04803988,59.7114163 6.33824397,59.8314439 C6.62844806,59.9514715 6.95445041,59.9512809 7.24451396,59.8309141 L8.9221461,59.134931 C9.80995923,60.347908 10.8797606,61.4165114 12.0937317,62.3029648 L11.3991017,63.9831339 C11.2791031,64.2734591 11.2794096,64.5995734 11.3999538,64.8896725 C11.5204979,65.1797716 11.7513958,65.4100688 12.0418078,65.529857 L16.185571,67.2430071 C16.7897916,67.4927912 17.4821032,67.2055079 17.7319558,66.6013158 L18.4254019,64.9240219 C19.9105701,65.1543998 21.4224201,65.1538863 22.9074315,64.9224997 L23.6027381,66.5984405 C23.8532512,67.2023457 24.545859,67.488869 25.1497994,67.2384405 L29.2922095,65.5203855 C29.5823011,65.4000864 29.8127117,65.16946 29.9327393,64.8792559 C30.0527669,64.5890519 30.0525763,64.2630495 29.9322095,63.972986 L29.2367338,62.2972143 C30.4500566,61.4091988 31.5186555,60.3387742 32.4045985,59.1239373 L34.0830763,59.8173834 C34.3732529,59.9374503 34.6992436,59.9373126 34.9893186,59.8170005 C35.2793935,59.6966884 35.5097854,59.4660596 35.6297994,59.1758612 L37.343626,55.0331128 C37.4636832,54.7429151 37.4635213,54.4169066 37.343176,54.1268282 C37.2228308,53.8367499 36.9921636,53.6063715 36.7019347,53.4863898 L36.7026112,53.4874046 Z M33.8950002,57.1777217 L32.4189748,56.5671509 C31.884898,56.3461917 31.2693384,56.5431565 30.9627381,57.0331128 C29.9935843,58.5781918 28.6888483,59.8851245 27.1454019,60.856876 C26.655693,61.1639382 26.4592951,61.7797282 26.680793,62.3136202 L27.2922095,63.7869394 L25.3371989,64.5987788 L24.7257825,63.1251213 C24.5042993,62.5912487 23.9297005,62.2953342 23.366459,62.425079 C21.5884591,62.8308239 19.7419726,62.8315175 17.9636683,62.4271086 C17.4006174,62.2991719 16.8272916,62.5955129 16.6060362,63.1288422 L15.9961419,64.6035145 L14.0401165,63.7948887 L14.6503491,62.3192016 C14.8710474,61.7856413 14.674666,61.1706988 14.185571,60.8638105 C12.6414191,59.8932348 11.3351033,58.5880751 10.3631609,57.044783 C10.0561508,56.5550114 9.44034924,56.3585384 8.90641671,56.580005 L7.431237,57.192098 L6.62041248,55.2364109 L8.09745265,54.6239796 C8.63624693,54.4005366 8.9320215,53.817959 8.79445054,53.2511255 C8.78075075,53.1949733 8.76891142,53.1394976 8.7565647,53.0809775 C8.38679616,51.3598504 8.39961407,49.5785079 8.79411227,47.8628802 C8.92243468,47.299911 8.62593179,46.7264863 8.09237865,46.5057555 L6.61635328,45.8951847 L7.42548648,43.9388211 L8.90371058,44.5497301 C9.43782796,44.770658 10.0533991,44.5736181 10.3599474,44.0835991 C11.3280295,42.5389437 12.6318977,41.2324162 14.1745774,40.2611889 C14.664139,39.95409 14.8604503,39.3384188 14.6390171,38.8046139 L14.0269241,37.3296033 L15.9821038,36.517764 L16.5940277,37.9929437 C16.8155108,38.5268163 17.3901096,38.8227307 17.9533512,38.692986 C19.7310941,38.2873167 21.5773842,38.2873167 23.3551271,38.692986 C23.9184499,38.8224403 24.492834,38.5258433 24.7134357,37.9915906 L25.324514,36.5138739 L27.2800319,37.3230071 L26.669292,38.7995399 C26.4484957,39.3333148 26.6451254,39.9485064 27.1345774,40.2552693 C28.6281474,41.1873248 29.8984607,42.436447 30.8555076,43.9141276 C30.8873047,43.9630071 30.9192708,44.0127323 30.9503913,44.0633031 C31.2551689,44.5591379 31.8751334,44.7599129 32.4127169,44.536876 L33.8880658,43.924783 L34.6999051,45.8796244 L33.2243871,46.4913792 C32.6903719,46.7128128 32.3943615,47.2875305 32.5241757,47.8508718 C32.930318,49.6290867 32.9312428,51.4758873 32.5268818,53.2545082 C32.3986047,53.8175666 32.6952672,54.3910235 33.2289537,54.6116329 L34.7043025,55.2218655 L33.8950002,57.1777217 Z" id="Shape" fill="#979797"></path>
        </g>
    </g>
</svg>