<svg xmlns="http://www.w3.org/2000/svg" width="104.449" height="83.83" viewBox="0 0 104.449 83.83">
  <g id="aircraft" transform="translate(-7.077 6.263) rotate(-18)">
    <path id="Path_8" data-name="Path 8" d="M3.961,141.42l25.526,3.521L17.03,163.066a1.524,1.524,0,0,0,.885,2.341l6.1,1.524a1.523,1.523,0,0,0,1.383-.339L47.1,147.3l12.138,1.1c1.556.142,3.506.209,5.518.209a75.321,75.321,0,0,0,8.621-.448l4.028-.5a30.363,30.363,0,0,0,8.2-2.223l2.9-1.24a3.729,3.729,0,0,0,.41-6.649l-8.812-5.14a25.935,25.935,0,0,0-13.051-3.528H55.55L37.9,108.841a1.608,1.608,0,0,0-1.172-.516l-6.281.113a1.524,1.524,0,0,0-1.364,2.153l8.183,18.287H16.18l-7.19-14.4a1.523,1.523,0,0,0-1.372-.842h-6.1a1.523,1.523,0,0,0-1.5,1.775L2.882,132.59l-.345.173a4.594,4.594,0,0,0,1.424,8.658ZM23.97,163.777l-3.185-.8L35.8,141.141l12.372,1.124-2.108,1.873-.208-.021-.02.22Zm8.839-52.336,3.273-.06,15.405,17.5H40.609ZM6.073,133.2,3.322,116.687H6.675l7.2,14.4a1.525,1.525,0,0,0,1.365.843H67.052a22.869,22.869,0,0,1,11.2,2.941l.474.95-1.362.682H71.624v3.048h6.1a1.531,1.531,0,0,0,.682-.153l3.048-1.524a1.506,1.506,0,0,0,.685-.743l5.245,3.061a.681.681,0,0,1-.075,1.219l-2.9,1.24a27.38,27.38,0,0,1-7.38,2l-4.028.5a75.523,75.523,0,0,1-13.486.227l-9.3-.844,2.6-2.312a1.524,1.524,0,0,0-.87-2.676l-16.763-1.524a1.522,1.522,0,0,0-1.393.655l-2.371,3.459L4.38,138.4a1.545,1.545,0,0,1-.478-2.912l1.351-.676a1.523,1.523,0,0,0,.822-1.615Zm0,0" transform="translate(0 -85.419)" fill="#0635c9"/>
    <path id="Path_9" data-name="Path 9" d="M104,240.223h3.048v3.048H104Zm0,0" transform="translate(-84.186 -192.191)" fill="#0635c9"/>
    <path id="Path_10" data-name="Path 10" d="M136,240.223h3.048v3.048H136Zm0,0" transform="translate(-110.091 -192.191)" fill="#0635c9"/>
    <path id="Path_11" data-name="Path 11" d="M168,240.223h3.048v3.048H168Zm0,0" transform="translate(-135.995 -192.191)" fill="#0635c9"/>
    <path id="Path_12" data-name="Path 12" d="M200,240.223h3.048v3.048H200Zm0,0" transform="translate(-161.899 -192.191)" fill="#0635c9"/>
    <path id="Path_13" data-name="Path 13" d="M232,240.223h3.048v3.048H232Zm0,0" transform="translate(-187.803 -192.191)" fill="#0635c9"/>
    <path id="Path_14" data-name="Path 14" d="M264,240.223h3.048v3.048H264Zm0,0" transform="translate(-213.707 -192.191)" fill="#0635c9"/>
    <path id="Path_15" data-name="Path 15" d="M296,240.223h3.048v3.048H296Zm0,0" transform="translate(-239.612 -192.191)" fill="#0635c9"/>
  </g>
</svg>
