<?xml version="1.0" encoding="UTF-8"?>
<svg width="20px" height="20px" viewBox="0 0 20 20" version="1.1" xmlns="http://www.w3.org/2000/svg" xmlns:xlink="http://www.w3.org/1999/xlink">
    <!-- Generator: Sketch 63.1 (92452) - https://sketch.com -->
    <title>check_circle_outline-24px</title>
    <desc>Created with Sketch.</desc>
    <g id="Page-1" stroke="none" stroke-width="1" fill="none" fill-rule="evenodd">
        <g id="1" transform="translate(-764.000000, -383.000000)" fill="#44D7B6" fill-rule="nonzero">
            <g id="Group-4" transform="translate(128.000000, 120.000000)">
                <g id="Group-5">
                    <g id="Group-3" transform="translate(634.000000, 219.000000)">
                        <g id="check_circle_outline-24px" transform="translate(2.000000, 44.000000)">
                            <path d="M10,0 C4.48,0 0,4.48 0,10 C0,15.52 4.48,20 10,20 C15.52,20 20,15.52 20,10 C20,4.48 15.52,0 10,0 Z" id="Shape" fill-opacity="0.2"></path>
                            <path d="M13.88,6.29 L8,12.17 L6.12,10.29 C5.73,9.9 5.1,9.9 4.71,10.29 C4.32,10.68 4.32,11.31 4.71,11.7 L7.3,14.29 C7.69,14.68 8.32,14.68 8.71,14.29 L15.3,7.7 C15.69,7.31 15.69,6.68 15.3,6.29 C14.91,5.9 14.27,5.9 13.88,6.29 Z" id="Path"></path>
                        </g>
                    </g>
                </g>
            </g>
        </g>
    </g>
</svg>