<?xml version="1.0" encoding="UTF-8"?>
<svg width="66px" height="70px" viewBox="0 0 66 70" version="1.1" xmlns="http://www.w3.org/2000/svg" xmlns:xlink="http://www.w3.org/1999/xlink">
    <!-- Generator: Sketch 63.1 (92452) - https://sketch.com -->
    <title>create-map</title>
    <desc>Created with Sketch.</desc>
    <g id="Page-1" stroke="none" stroke-width="1" fill="none" fill-rule="evenodd">
        <g id="create-map" fill="#979797" fill-rule="nonzero">
            <path d="M40.3333789,9.33337891 C40.3333789,6.75623047 38.2439062,4.66675781 35.6667578,4.66675781 C33.0896094,4.66675781 31,6.75623047 31,9.33337891 C31,11.9105273 33.0894727,14 35.6666211,14 C38.2437695,14 40.3333789,11.9105273 40.3333789,9.33337891 Z M33.3333789,9.33337891 C33.3333789,8.04425781 34.3775,7 35.6667578,7 C36.9558789,7 38.0001367,8.04412109 38.0001367,9.33337891 C38.0001367,10.6226367 36.9560156,11.6667578 35.6667578,11.6667578 C34.3775,11.6666211 33.3333789,10.6225 33.3333789,9.33337891 Z" id="Shape"></path>
            <path d="M60.1667578,42.9041211 L60.1667578,17.5 C60.1667578,16.8560547 59.644082,16.3333789 59.0001367,16.3333789 L42.9,16.3333789 C44.1821484,14.2158789 44.9042969,11.8067578 45,9.33337891 C45,4.17894531 40.8210547,0 35.6667578,0 C30.5124609,0 26.3333789,4.17894531 26.3333789,9.33337891 C26.429082,11.8067578 27.1512305,14.2158789 28.4333789,16.3333789 L8.83337891,16.3333789 L8.83337891,14 C8.83337891,13.3560547 8.31070312,12.8333789 7.66675781,12.8333789 L5.33337891,12.8333789 C2.75623047,12.8333789 0.666757812,14.9228516 0.666757812,17.5 L0.666757812,60.6666211 C0.666757812,63.2437695 2.75623047,65.3332422 5.33337891,65.3332422 L39.9146094,65.3332422 C45.7035547,71.3730664 55.2935547,71.5771875 61.3333789,65.7870117 C67.3732031,59.9968359 67.5773242,50.4080664 61.7871484,44.3682422 C61.2832031,43.8421484 60.7419336,43.3521484 60.1667578,42.9041211 Z M35.6667578,2.33337891 C39.5307031,2.33693359 42.6632031,5.46943359 42.6667578,9.33337891 C42.6667578,14.4994336 37.6208789,19.8614063 35.6667578,21.7455273 C33.7126367,19.8614063 28.6667578,14.4992969 28.6667578,9.33337891 C28.6701758,5.46929688 31.8026758,2.33679688 35.6667578,2.33337891 Z M28.6667578,18.6666211 L29.9128125,18.6666211 C31.3688672,20.6953906 33.044082,22.5575 34.9085156,24.2187695 C35.3447852,24.5921484 35.9888672,24.5921484 36.4251367,24.2187695 C38.2894336,22.5575 39.9647852,20.6953906 41.4208398,18.6666211 L57.8335156,18.6666211 L57.8335156,26.8332422 L36.8335156,26.8332422 C36.1895703,26.8332422 35.6668945,27.355918 35.6668945,27.9998633 L35.6668945,41.9998633 L28.6667578,41.9998633 L28.6667578,18.6666211 L28.6667578,18.6666211 Z M8.83337891,18.6666211 L19.3333789,18.6666211 L19.3333789,28 L8.83337891,28 L8.83337891,18.6666211 Z M3,17.5 C3,16.2108789 4.04412109,15.1666211 5.33337891,15.1666211 L6.5,15.1666211 L6.5,56 L5.33337891,56 C4.51443359,55.9987695 3.70820312,56.2146484 3,56.6264453 L3,17.5 L3,17.5 Z M19.3333789,63 L5.33337891,63 C4.04425781,63 3,61.9558789 3,60.6666211 C3,59.3775 4.04412109,58.3332422 5.33337891,58.3332422 L7.66675781,58.3332422 C8.31070312,58.3332422 8.83337891,57.8105664 8.83337891,57.1666211 L8.83337891,37.3333789 L19.3333789,37.3333789 L19.3333789,63 Z M26.3333789,50.1666211 L26.3333789,63 L21.6667578,63 L21.6667578,36.1666211 C21.6667578,35.5226758 21.144082,35 20.5001367,35 L8.83337891,35 L8.83337891,30.3333789 L20.5,30.3333789 C21.1439453,30.3333789 21.6666211,29.8107031 21.6666211,29.1667578 L21.6666211,18.6667578 L26.3332422,18.6667578 L26.3332422,43.1667578 C26.3332422,43.8107031 26.855918,44.3333789 27.4998633,44.3333789 L36.8332422,44.3333789 C37.4771875,44.3333789 37.9998633,43.8107031 37.9998633,43.1667578 L37.9998633,29.1667578 L57.8332422,29.1667578 L57.8332422,33.8333789 L43.8332422,33.8333789 C43.1892969,33.8333789 42.6666211,34.3560547 42.6666211,35 L42.6666211,42.0735547 C40.0660937,43.7383789 38.0314453,46.1533789 36.8332422,49 L27.5,49 C26.8560547,49 26.3333789,49.5226758 26.3333789,50.1666211 Z M57.8333789,36.1666211 L57.8333789,41.3921484 C53.8526758,39.3037695 49.1475,39.098418 45,40.8333789 L45,36.1667578 L57.8333789,36.1667578 L57.8333789,36.1666211 Z M28.6667578,63 L28.6667578,51.3333789 L36.0903125,51.3333789 C35.1185156,55.3292578 35.8360156,59.549082 38.0736914,63 L28.6667578,63 L28.6667578,63 Z M50.8333789,67.6666211 C43.7458789,67.6666211 38,61.9207422 38,54.8332422 C38,47.7457422 43.7458789,41.9998633 50.8333789,41.9998633 C57.9208789,41.9998633 63.6667578,47.7457422 63.6667578,54.8332422 C63.6585547,61.9173242 57.9173242,67.6585547 50.8333789,67.6666211 Z" id="Shape"></path>
            <path d="M55.6167578,51.6985547 L57.4904883,49.8249609 L55.8408398,48.1753125 L53.9683398,50.0501367 L52.0001367,49.3792578 L52.0001367,44.3333789 L49.6667578,44.3333789 L49.6667578,48.5858789 L44.209082,46.7296484 C43.5989062,46.5232031 42.9362305,46.8498242 42.7297852,47.46 C42.6469336,47.7026758 42.6469336,47.9662695 42.7297852,48.2089453 L44.5860156,53.6666211 L40.3335156,53.6666211 L40.3335156,56 L45.3793945,56 L46.049043,57.9682031 L44.1751758,59.8417969 L45.8248242,61.4914453 L47.6985547,59.6166211 L49.6667578,60.2875 L49.6667578,65.3333789 L52,65.3333789 L52,61.0808789 L57.4576758,62.9371094 C58.0678516,63.1435547 58.7305273,62.8169336 58.9369727,62.2067578 C59.0198242,61.964082 59.0198242,61.7004883 58.9369727,61.4578125 L57.0808789,56 L61.3333789,56 L61.3333789,53.6666211 L56.2875,53.6666211 L55.6167578,51.6985547 Z M48.3051758,57.3603516 L45.7,49.7 L53.3591211,52.3051758 L55.9666211,59.9666211 L48.3051758,57.3603516 Z" id="Shape"></path>
            <rect id="Rectangle" x="49.6667578" y="53.6666211" width="2.33337891" height="2.33337891"></rect>
        </g>
    </g>
</svg>