<svg xmlns="http://www.w3.org/2000/svg" width="60" height="60" viewBox="0 0 60 60">
  <g id="daily" transform="translate(-16 -16)">
    <path id="Path_38" data-name="Path 38" d="M71,20H65V19a3,3,0,1,0-6,0v1H49V19a3,3,0,1,0-6,0v1H33V19a3,3,0,1,0-6,0v1H21a5.006,5.006,0,0,0-5,5V71a5.006,5.006,0,0,0,5,5H71a5.006,5.006,0,0,0,5-5V25A5.006,5.006,0,0,0,71,20ZM61,19a1,1,0,1,1,2,0v6a1,1,0,1,1-2,0ZM45,19a1,1,0,1,1,2,0v6a1,1,0,1,1-2,0ZM29,19a1,1,0,0,1,2,0v6a1,1,0,1,1-2,0Zm-8,3h6v3a3,3,0,1,0,6,0V22H43v3a3,3,0,1,0,6,0V22H59v3a3,3,0,0,0,6,0V22h6a3,3,0,0,1,3,3v7H18V25A3,3,0,0,1,21,22ZM71,74H21a3,3,0,0,1-3-3V34H74V71A3,3,0,0,1,71,74Z" transform="translate(0 0)" fill="#0635c9"/>
    <path id="Path_39" data-name="Path 39" d="M404.485,216H400.9a.9.9,0,0,0-.9.9v3.588a.9.9,0,0,0,.9.9h3.588a.9.9,0,0,0,.9-.9V216.9A.9.9,0,0,0,404.485,216Zm-.9,3.588h-1.794v-1.794h1.794Z" transform="translate(-334.765 -174.714)" fill="#0635c9"/>
    <path id="Path_40" data-name="Path 40" d="M244.485,376H240.9a.9.9,0,0,0-.9.9v3.588a.9.9,0,0,0,.9.9h3.588a.9.9,0,0,0,.9-.9V376.9A.9.9,0,0,0,244.485,376Zm-.9,3.588h-1.794v-1.794h1.794Z" transform="translate(-195.68 -314.485)" fill="#0635c9"/>
    <path id="Path_41" data-name="Path 41" d="M164.485,216H160.9a.9.9,0,0,0-.9.9v3.588a.9.9,0,0,0,.9.9h3.588a.9.9,0,0,0,.9-.9V216.9A.9.9,0,0,0,164.485,216Zm-.9,3.588h-1.794v-1.794h1.794Z" transform="translate(-125.794 -174.714)" fill="#0635c9"/>
    <path id="Path_42" data-name="Path 42" d="M84.485,296H80.9a.9.9,0,0,0-.9.9v3.588a.9.9,0,0,0,.9.9h3.588a.9.9,0,0,0,.9-.9V296.9A.9.9,0,0,0,84.485,296Zm-.9,3.588H81.794v-1.794h1.794Z" transform="translate(-56.823 -244.6)" fill="#0635c9"/>
    <path id="Path_43" data-name="Path 43" d="M164.485,296H160.9a.9.9,0,0,0-.9.9v3.588a.9.9,0,0,0,.9.9h3.588a.9.9,0,0,0,.9-.9V296.9A.9.9,0,0,0,164.485,296Zm-.9,3.588h-1.794v-1.794h1.794Z" transform="translate(-125.794 -244.6)" fill="#0635c9"/>
    <path id="Path_44" data-name="Path 44" d="M84.485,376H80.9a.9.9,0,0,0-.9.9v3.588a.9.9,0,0,0,.9.9h3.588a.9.9,0,0,0,.9-.9V376.9A.9.9,0,0,0,84.485,376Zm-.9,3.588H81.794v-1.794h1.794Z" transform="translate(-56.823 -314.485)" fill="#0635c9"/>
    <path id="Path_45" data-name="Path 45" d="M164.485,376H160.9a.9.9,0,0,0-.9.9v3.588a.9.9,0,0,0,.9.9h3.588a.9.9,0,0,0,.9-.9V376.9A.9.9,0,0,0,164.485,376Zm-.9,3.588h-1.794v-1.794h1.794Z" transform="translate(-125.794 -314.485)" fill="#0635c9"/>
    <path id="Path_46" data-name="Path 46" d="M247.389,205.492l-4.485-.685-2.015-4.291a.9.9,0,0,0-1.624,0l-2.014,4.291-4.485.685a.9.9,0,0,0-.507,1.514l3.272,3.354-.774,4.746a.9.9,0,0,0,1.318.929l4-2.212,4,2.212a.9.9,0,0,0,1.319-.929l-.774-4.746,3.272-3.354a.9.9,0,0,0-.507-1.514Zm-4.366,3.938a.9.9,0,0,0-.243.771l.549,3.37-2.819-1.559a.9.9,0,0,0-.868,0l-2.819,1.559.549-3.37a.9.9,0,0,0-.243-.771L234.762,207l3.233-.493a.9.9,0,0,0,.677-.506l1.405-3L241.482,206a.9.9,0,0,0,.677.506l3.233.493Z" transform="translate(-187.812 -159.985)" fill="#0635c9"/>
    <path id="Path_47" data-name="Path 47" d="M404.485,296H400.9a.9.9,0,0,0-.9.9v3.588a.9.9,0,0,0,.9.9h3.588a.9.9,0,0,0,.9-.9V296.9A.9.9,0,0,0,404.485,296Zm-.9,3.588h-1.794v-1.794h1.794Z" transform="translate(-334.765 -244.6)" fill="#0635c9"/>
    <path id="Path_48" data-name="Path 48" d="M404.485,376H400.9a.9.9,0,0,0-.9.9v3.588a.9.9,0,0,0,.9.9h3.588a.9.9,0,0,0,.9-.9V376.9A.9.9,0,0,0,404.485,376Zm-.9,3.588h-1.794v-1.794h1.794Z" transform="translate(-334.765 -314.485)" fill="#0635c9"/>
    <path id="Path_49" data-name="Path 49" d="M324.485,376H320.9a.9.9,0,0,0-.9.9v3.588a.9.9,0,0,0,.9.9h3.588a.9.9,0,0,0,.9-.9V376.9A.9.9,0,0,0,324.485,376Zm-.9,3.588h-1.794v-1.794h1.794Z" transform="translate(-265.565 -314.485)" fill="#0635c9"/>
  </g>
</svg>
