<svg xmlns="http://www.w3.org/2000/svg" width="60" height="60" viewBox="0 0 60 60">
  <g id="monthly" transform="translate(-16 -16)">
    <path id="Path_38" data-name="Path 38" d="M71,20H65V19a3,3,0,1,0-6,0v1H49V19a3,3,0,1,0-6,0v1H33V19a3,3,0,1,0-6,0v1H21a5.006,5.006,0,0,0-5,5V71a5.006,5.006,0,0,0,5,5H71a5.006,5.006,0,0,0,5-5V25A5.006,5.006,0,0,0,71,20ZM61,19a1,1,0,1,1,2,0v6a1,1,0,1,1-2,0ZM45,19a1,1,0,1,1,2,0v6a1,1,0,1,1-2,0ZM29,19a1,1,0,0,1,2,0v6a1,1,0,1,1-2,0Zm-8,3h6v3a3,3,0,1,0,6,0V22H43v3a3,3,0,1,0,6,0V22H59v3a3,3,0,0,0,6,0V22h6a3,3,0,0,1,3,3v7H18V25A3,3,0,0,1,21,22ZM71,74H21a3,3,0,0,1-3-3V34H74V71A3,3,0,0,1,71,74Z" transform="translate(0 0)" fill="#7e7e7e"/>
    <path id="Path_39" data-name="Path 39" d="M404.485,216H400.9a.9.9,0,0,0-.9.9v3.588a.9.9,0,0,0,.9.9h3.588a.9.9,0,0,0,.9-.9V216.9A.9.9,0,0,0,404.485,216Zm-.9,3.588h-1.794v-1.794h1.794Z" transform="translate(-334.765 -174.714)" fill="#7e7e7e"/>
    <path id="Path_40" data-name="Path 40" d="M244.485,376H240.9a.9.9,0,0,0-.9.9v3.588a.9.9,0,0,0,.9.9h3.588a.9.9,0,0,0,.9-.9V376.9A.9.9,0,0,0,244.485,376Zm-.9,3.588h-1.794v-1.794h1.794Z" transform="translate(-195.68 -314.485)" fill="#7e7e7e"/>
    <path id="Path_41" data-name="Path 41" d="M164.485,216H160.9a.9.9,0,0,0-.9.9v3.588a.9.9,0,0,0,.9.9h3.588a.9.9,0,0,0,.9-.9V216.9A.9.9,0,0,0,164.485,216Zm-.9,3.588h-1.794v-1.794h1.794Z" transform="translate(-125.794 -174.714)" fill="#7e7e7e"/>
    <path id="Path_42" data-name="Path 42" d="M84.485,296H80.9a.9.9,0,0,0-.9.9v3.588a.9.9,0,0,0,.9.9h3.588a.9.9,0,0,0,.9-.9V296.9A.9.9,0,0,0,84.485,296Zm-.9,3.588H81.794v-1.794h1.794Z" transform="translate(-56.823 -244.6)" fill="#7e7e7e"/>
    <path id="Path_43" data-name="Path 43" d="M164.485,296H160.9a.9.9,0,0,0-.9.9v3.588a.9.9,0,0,0,.9.9h3.588a.9.9,0,0,0,.9-.9V296.9A.9.9,0,0,0,164.485,296Zm-.9,3.588h-1.794v-1.794h1.794Z" transform="translate(-125.794 -244.6)" fill="#7e7e7e"/>
    <path id="Path_44" data-name="Path 44" d="M84.485,376H80.9a.9.9,0,0,0-.9.9v3.588a.9.9,0,0,0,.9.9h3.588a.9.9,0,0,0,.9-.9V376.9A.9.9,0,0,0,84.485,376Zm-.9,3.588H81.794v-1.794h1.794Z" transform="translate(-56.823 -314.485)" fill="#7e7e7e"/>
    <path id="Path_45" data-name="Path 45" d="M164.485,376H160.9a.9.9,0,0,0-.9.9v3.588a.9.9,0,0,0,.9.9h3.588a.9.9,0,0,0,.9-.9V376.9A.9.9,0,0,0,164.485,376Zm-.9,3.588h-1.794v-1.794h1.794Z" transform="translate(-125.794 -314.485)" fill="#7e7e7e"/>
    <path id="Path_47" data-name="Path 47" d="M404.485,296H400.9a.9.9,0,0,0-.9.9v3.588a.9.9,0,0,0,.9.9h3.588a.9.9,0,0,0,.9-.9V296.9A.9.9,0,0,0,404.485,296Zm-.9,3.588h-1.794v-1.794h1.794Z" transform="translate(-334.765 -244.6)" fill="#7e7e7e"/>
    <path id="Path_48" data-name="Path 48" d="M404.485,376H400.9a.9.9,0,0,0-.9.9v3.588a.9.9,0,0,0,.9.9h3.588a.9.9,0,0,0,.9-.9V376.9A.9.9,0,0,0,404.485,376Zm-.9,3.588h-1.794v-1.794h1.794Z" transform="translate(-334.765 -314.485)" fill="#7e7e7e"/>
    <path id="Path_49" data-name="Path 49" d="M324.485,376H320.9a.9.9,0,0,0-.9.9v3.588a.9.9,0,0,0,.9.9h3.588a.9.9,0,0,0,.9-.9V376.9A.9.9,0,0,0,324.485,376Zm-.9,3.588h-1.794v-1.794h1.794Z" transform="translate(-265.565 -314.485)" fill="#7e7e7e"/>
    <path id="Path_62" data-name="Path 62" d="M244.485,376H240.9a.9.9,0,0,0-.9.9v3.588a.9.9,0,0,0,.9.9h3.588a.9.9,0,0,0,.9-.9V376.9A.9.9,0,0,0,244.485,376Zm-.9,3.588h-1.794v-1.794h1.794Z" transform="translate(-195.68 -324.485)" fill="#7e7e7e"/>
    <path id="Path_63" data-name="Path 63" d="M244.485,376H240.9a.9.9,0,0,0-.9.9v3.588a.9.9,0,0,0,.9.9h3.588a.9.9,0,0,0,.9-.9V376.9A.9.9,0,0,0,244.485,376Zm-.9,3.588h-1.794v-1.794h1.794Z" transform="translate(-195.68 -334.485)" fill="#7e7e7e"/>
    <path id="Path_64" data-name="Path 64" d="M244.485,376H240.9a.9.9,0,0,0-.9.9v3.588a.9.9,0,0,0,.9.9h3.588a.9.9,0,0,0,.9-.9V376.9A.9.9,0,0,0,244.485,376Zm-.9,3.588h-1.794v-1.794h1.794Z" transform="translate(-185.68 -324.485)" fill="#7e7e7e"/>
    <path id="Path_65" data-name="Path 65" d="M244.485,376H240.9a.9.9,0,0,0-.9.9v3.588a.9.9,0,0,0,.9.9h3.588a.9.9,0,0,0,.9-.9V376.9A.9.9,0,0,0,244.485,376Zm-.9,3.588h-1.794v-1.794h1.794Z" transform="translate(-185.68 -334.485)" fill="#7e7e7e"/>
  </g>
</svg>
