<?xml version="1.0" encoding="UTF-8"?>
<svg width="30px" height="9px" viewBox="0 0 30 9" version="1.1" xmlns="http://www.w3.org/2000/svg" xmlns:xlink="http://www.w3.org/1999/xlink">
    <!-- Generator: Sketch 63.1 (92452) - https://sketch.com -->
    <title>other</title>
    <desc>Created with Sketch.</desc>
    <g id="Page-1" stroke="none" stroke-width="1" fill="none" fill-rule="evenodd">
        <g id="other" transform="translate(0.000000, 0.037807)" fill="#979797" fill-rule="nonzero">
            <path d="M25.7835484,8.4326404 C23.4552308,8.4326404 21.5672282,6.54496618 21.5672282,4.2163202 C21.5672282,1.88767422 23.4552308,-6.21724894e-15 25.7835484,-6.21724894e-15 C28.1121944,-6.21724894e-15 29.9998687,1.88767422 29.9998687,4.2163202 C30.000197,6.54496618 28.1121944,8.4326404 25.7835484,8.4326404 L25.7835484,8.4326404 Z M25.7835484,1.68114318 C24.3834714,1.68114318 23.2483714,2.81624315 23.2483714,4.2163202 C23.2483714,5.61639725 24.3834714,6.75149723 25.7835484,6.75149723 C27.1839539,6.75149723 28.3187255,5.61639725 28.3187255,4.2163202 C28.3187255,2.81624315 27.1839539,1.68114318 25.7835484,1.68114318 L25.7835484,1.68114318 Z" id="Shape"></path>
            <path d="M14.9999344,8.4326404 C12.6712884,8.4326404 10.7836141,6.54496618 10.7836141,4.2163202 C10.7836141,1.88767422 12.6712884,-6.21724894e-15 14.9999344,-6.21724894e-15 C17.3285803,-6.21724894e-15 19.2162546,1.88767422 19.2162546,4.2163202 C19.2162546,6.54496618 17.3285803,8.4326404 14.9999344,8.4326404 Z M14.9999344,1.68114318 C13.5998573,1.68114318 12.4647572,2.81624315 12.4647572,4.2163202 C12.4647572,5.61639725 13.5998573,6.75149723 14.9999344,6.75149723 C16.4000114,6.75149723 17.5351114,5.61639725 17.5351114,4.2163202 C17.5351114,2.81624315 16.4000114,1.68114318 14.9999344,1.68114318 Z" id="Shape"></path>
            <path d="M4.2163202,8.4326404 C1.88767422,8.4326404 1.08357767e-13,6.54496618 1.08357767e-13,4.2163202 C1.08357767e-13,1.88767422 1.88767422,-6.21724894e-15 4.2163202,-6.21724894e-15 C6.54496618,-6.21724894e-15 8.4326404,1.88767422 8.4326404,4.2163202 C8.43001362,6.54398112 6.54398112,8.43001362 4.2163202,8.4326404 Z M4.2163202,1.68114318 C2.81624315,1.68114318 1.68114318,2.81624315 1.68114318,4.2163202 C1.68114318,5.61639725 2.81624315,6.75149723 4.2163202,6.75149723 C5.61639725,6.75149723 6.75149723,5.61639725 6.75149723,4.2163202 C6.74952718,2.81689989 5.6157406,1.68311322 4.2163202,1.68114318 Z" id="Shape"></path>
        </g>
    </g>
</svg>