<?xml version="1.0" encoding="UTF-8"?>
<svg width="74px" height="68px" viewBox="0 0 74 68" version="1.1" xmlns="http://www.w3.org/2000/svg" xmlns:xlink="http://www.w3.org/1999/xlink">
    <!-- Generator: Sketch 63.1 (92452) - https://sketch.com -->
    <title>proceed-timeline</title>
    <desc>Created with Sketch.</desc>
    <g id="Page-1" stroke="none" stroke-width="1" fill="none" fill-rule="evenodd">
        <g id="proceed-timeline" fill="#979797" fill-rule="nonzero">
            <polygon id="Path" points="8.93607306 50.5585046 41.2283105 50.5585046 41.2283105 53.0425228 8.93607306 53.0425228"></polygon>
            <polygon id="Path" points="20.1141553 55.5265411 37.5022831 55.5265411 37.5022831 58.0105594 20.1141553 58.0105594"></polygon>
            <polygon id="Path" points="51.1643836 60.4945776 54.890411 60.4945776 54.890411 62.9785959 51.1643836 62.9785959"></polygon>
            <polygon id="Path" points="23.8401826 60.4945776 33.7762557 60.4945776 33.7762557 62.9785959 23.8401826 62.9785959"></polygon>
            <polygon id="Path" points="30.0502283 65.4626142 42.4703196 65.4626142 42.4703196 67.9466324 30.0502283 67.9466324"></polygon>
            <path d="M64.826484,36.8964041 C64.850742,25.6158319 58.2343749,15.3777468 47.9398902,10.7656963 C37.6447988,6.15364587 25.6001,8.03121437 17.1983447,15.5590753 C8.79658953,23.0863299 5.61151549,34.8526685 9.0688856,45.590468 L3.96803653,45.590468 L3.96803653,48.0744863 L73.5205479,48.0744863 L73.5205479,45.590468 L63.4516623,45.590468 C64.3583048,42.7813927 64.8222388,39.8479952 64.826484,36.8964041 Z M10.1780305,36.8964041 C10.157463,26.5012486 16.3111087,17.0861159 25.8408605,12.9331479 C35.3706121,8.78078628 46.4565139,10.6832192 54.0559361,17.7762557 C61.6559646,24.8686858 64.318279,35.7969107 60.8324059,45.590468 L11.688142,45.590468 C10.6923516,42.8001927 10.1811144,39.8595178 10.1780305,36.8964041 Z" id="Shape"></path>
            <path d="M54.5265411,6.72431507 L58.2525685,2.99828767 L56.49629,1.24200913 L53.6484018,4.08989726 L50.8005137,1.24200913 L49.0442352,2.99828767 L52.7702626,6.72431507 C53.2554224,7.20886847 54.0413813,7.20886847 54.5265411,6.72431507 Z" id="Path"></path>
            <path d="M4.33190639,16.6603881 C4.81706621,17.1449415 5.60302511,17.1449415 6.08818493,16.6603881 L9.81421233,12.9343607 L8.05793379,11.1780822 L5.21004566,14.0259703 L2.36215753,11.1780822 L0.605878995,12.9343607 L4.33190639,16.6603881 Z" id="Path"></path>
            <path d="M20.1141553,5.8461758 C20.4434575,5.8461758 20.7594178,5.71518265 20.9922945,5.48230594 L24.7183219,1.75627854 L22.9620434,0 L20.1141553,2.84788813 L17.2662671,0 L15.5099886,1.75627854 L19.236016,5.48230594 C19.4688927,5.71518265 19.784853,5.8461758 20.1141553,5.8461758 Z" id="Path"></path>
            <path d="M67.3105023,18.2662671 C67.6398045,18.2662671 67.9557648,18.135274 68.1886416,17.9023973 L71.9146689,14.1763699 L70.1583904,12.4200913 L67.3105023,15.2679795 L64.4626142,12.4200913 L62.7063356,14.1763699 L66.432363,17.9023973 C66.6652397,18.135274 66.9812,18.2662671 67.3105023,18.2662671 Z" id="Path"></path>
            <path d="M47.9138128,50.6531107 C47.4498787,50.4608662 46.9155964,50.5669949 46.5602169,50.9223744 L36.6241438,60.8584475 C36.2693708,61.213827 36.1626356,61.7475028 36.3548801,62.2120434 C36.5471247,62.6759774 37.0001427,62.9785959 37.5022831,62.9785959 L47.4383562,62.9785959 C48.1242509,62.9785959 48.6803653,62.4224815 48.6803653,61.7365868 L48.6803653,51.8005137 C48.6803653,51.2983733 48.3777468,50.8453553 47.9138128,50.6531107 Z M46.196347,60.4945776 L40.5005708,60.4945776 L46.196347,54.7988014 L46.196347,60.4945776 Z" id="Shape"></path>
            <polygon id="Path" points="51.1643836 55.5265411 58.6164384 55.5265411 58.6164384 58.0105594 51.1643836 58.0105594"></polygon>
            <polygon id="Path" points="51.1643836 50.5585046 59.8584475 50.5585046 59.8584475 53.0425228 51.1643836 53.0425228"></polygon>
            <path d="M38.8898402,14.6930651 L38.5987443,17.1594963 C46.8446418,18.1498288 53.6114084,24.1506493 55.5799443,32.2188571 L57.994221,31.6378781 C55.7806792,22.5593251 48.1673087,15.8071133 38.8898402,14.6930651 L38.8898402,14.6930651 Z" id="Path"></path>
        </g>
    </g>
</svg>