<?xml version="1.0" encoding="UTF-8"?>
<svg width="53px" height="65px" viewBox="0 0 53 65" version="1.1" xmlns="http://www.w3.org/2000/svg" xmlns:xlink="http://www.w3.org/1999/xlink">
    <!-- Generator: Sketch 63.1 (92452) - https://sketch.com -->
    <title>school-students</title>
    <desc>Created with Sketch.</desc>
    <g id="Page-1" stroke="none" stroke-width="1" fill="none" fill-rule="evenodd">
        <g id="school-students" transform="translate(0.130151, 0.077011)" fill="#979797" fill-rule="nonzero">
            <path d="M12.9781993,61.3763226 C12.5623093,61.3685732 12.1559188,61.2506334 11.8004938,61.034537 C11.7514283,60.9761339 11.6959281,60.923455 11.635047,60.8775004 C11.6255338,60.8707447 11.4533312,60.7422477 11.1751048,60.4984894 C10.8353567,60.1026959 10.6468515,59.5993151 10.6430555,59.0777149 L10.723435,29.667614 C10.7249839,22.014052 15.1666897,15.0565738 22.1086573,11.8338266 C13.0548004,13.7814315 6.58909869,21.7853716 6.58850562,31.0463375 L6.50812604,60.4564383 C6.51165302,60.9779166 6.69981104,61.4812833 7.03921031,61.8772128 C7.31743669,62.1209711 7.48963925,62.2494681 7.49915244,62.2562238 C7.5600336,62.3021784 7.61553377,62.3548574 7.66459925,62.4132604 C8.01994384,62.62931 8.42623297,62.747248 8.84202905,62.755046 L43.4501929,62.755046 C43.8679486,62.749725 44.275277,62.6238592 44.6232108,62.3925796 C44.6649076,62.3420451 44.7110496,62.2953494 44.7610831,62.2530528 C44.7641163,62.2508468 44.8639359,62.1770851 45.0332431,62.032457 C45.2116639,61.8402172 45.3549302,61.6181312 45.4565112,61.3763226 L12.9781993,61.3763226 Z" id="Path" fill-opacity="0.1"></path>
            <path d="M20.3513364,12.2510283 C20.88435,12.2510283 21.3164428,11.8189354 21.3164428,11.2859219 C21.3164428,8.61856982 23.4787589,6.45625374 26.146111,6.45625374 C28.8134631,6.45625374 30.9757791,8.61856982 30.9757791,11.2859219 C30.9757791,11.8189354 31.407872,12.2510283 31.9408855,12.2510283 C32.4738991,12.2510283 32.9059919,11.8189354 32.9059919,11.2859219 C32.9059919,7.55254274 29.8794901,4.52604095 26.146111,4.52604095 C22.4127318,4.52604095 19.38623,7.55254274 19.38623,11.2859219 C19.38623,11.8189354 19.8183229,12.2510283 20.3513364,12.2510283 Z" id="Path"></path>
            <path d="M5.7830554,63.3598919 C6.58347948,64.1943669 7.68580645,64.671974 8.84202905,64.6852588 L43.4501929,64.6852588 C44.4675233,64.6780052 45.4454855,64.2911471 46.1924738,63.6004792 C47.4573147,62.5581643 52.1311871,58.1323242 52.1311871,49.796976 C52.1311871,34.8943545 48.2293998,4.73022989 48.1899683,4.42732435 C48.1708072,4.27934737 48.1177254,4.13779589 48.0348619,4.01370733 C47.6477824,2.79724728 46.7291929,1.82240934 45.5378559,1.36380091 L42.6976857,0.274609404 C41.6637788,-0.122989938 40.5133126,-0.0874490616 39.5059196,0.373211315 C38.4985266,0.833871692 37.7191049,1.68082937 37.3435511,2.72294646 L34.3155988,11.1003457 C29.0352242,8.91877025 23.1015628,8.94021722 17.8370964,11.1599066 L14.7876359,2.72280859 C14.4120587,1.68089042 13.6327953,0.834069621 12.6256216,0.373360538 C11.6184479,-0.0873485457 10.4681976,-0.123140581 9.43432864,0.274057915 L6.59333115,1.36324942 C5.40218032,1.82134373 4.48360514,2.79571309 4.09646303,4.01177711 C4.01369643,4.13491201 3.96056104,4.27553676 3.94121878,4.42263669 C3.90178729,4.72595585 -1.49213975e-13,34.8943545 -1.49213975e-13,49.7964245 C-1.49213975e-13,57.5943463 4.18042729,61.9719311 5.7830554,63.3598919 Z M47.5736789,59.0661336 L47.5736789,31.2763085 C47.5919855,26.7160047 46.1892264,22.2632603 43.5603529,18.5369041 L46.8914866,9.65213463 C47.9963955,18.8690386 50.2004231,38.6562014 50.2004231,49.7881522 C50.2009743,53.2567446 49.3158338,56.3769336 47.5736789,59.0661336 Z M39.1587784,3.37894306 C39.3581262,2.82442003 39.7725847,2.37366375 40.3084624,2.128571 C40.8443401,1.88347824 41.4563908,1.86474315 42.0062559,2.07660092 L44.8472534,3.16579242 C46.013433,3.61620382 46.6006728,4.92059388 46.1647615,6.09227076 L42.1630167,16.7655203 C41.891684,16.4559509 41.6113435,16.1530454 41.3219954,15.8568037 C39.7832616,14.2854418 38.0114734,12.9606929 36.0690592,11.9292342 L39.1587784,3.37894306 Z M39.9446507,17.208642 C43.6193623,20.9521518 45.6435597,25.9483697 45.6435597,31.2763085 L45.6435597,60.4514749 C45.6487442,61.0370447 45.4304513,61.6025747 45.0331053,62.0327328 C44.863798,62.1770851 44.7639785,62.2508468 44.7609453,62.2533285 C44.7109117,62.2956251 44.6647697,62.3423208 44.6230729,62.3928553 C44.2751483,62.6240121 43.8678737,62.7497803 43.4501929,62.755046 L8.84202905,62.755046 C8.426139,62.7472966 8.01974854,62.6293568 7.66432351,62.4132604 C7.61525803,62.3548574 7.55975785,62.3021784 7.4988767,62.2562238 C7.4893635,62.2494681 7.31716095,62.1209711 7.03893456,61.8772128 C6.69918648,61.4814193 6.51068123,60.9780385 6.50688519,60.4564383 L6.58726477,31.0463375 C6.58726477,20.2192224 15.3654589,11.4102255 26.1553484,11.4102255 C31.3468911,11.3976043 36.3219003,13.4896431 39.9442371,17.208642 L39.9446507,17.208642 Z M7.28393371,3.1653788 L10.1250691,2.0761873 C10.6749572,1.86441546 11.2869901,1.88320825 11.8228494,2.12831855 C12.3587087,2.37342885 12.7731631,2.8241671 12.9725466,3.37866732 L16.0869449,11.9956887 C13.7807217,13.2286312 11.7169863,14.8692495 9.99574481,16.8380411 L5.96642561,6.09185714 C5.53051431,4.92018026 6.11775408,3.61579021 7.28393371,3.1653788 Z M5.23970049,9.65158315 L8.59923586,18.6120445 C6.02941262,22.247218 4.6520908,26.5908235 4.65760347,31.0426149 L4.58108432,59.00092 C3.23476089,56.9466221 1.93021279,53.8972995 1.93021279,49.7876007 C1.93021279,38.6564771 4.13492942,18.8687628 5.23970049,9.65158315 Z" id="Shape"></path>
            <path d="M11.7082572,57.2990238 C11.8597648,58.8143619 13.1235886,59.9751701 14.6463168,59.9975991 L37.6909894,59.9975991 C39.2139764,59.9753067 40.4771129,58.8123664 40.6249129,57.2964042 L42.2218882,39.8682372 C42.2245078,39.8390082 42.2258865,39.8027478 42.2258865,39.7732431 C42.2258865,30.9131528 35.0427375,23.7014642 26.2138063,23.7014642 C17.3101483,23.7014642 10.0663355,30.9080515 10.0663355,39.7681418 C10.0663355,39.7983359 10.0677142,39.8413521 10.0706095,39.8714082 L11.7082572,57.2990238 Z M26.2138063,25.6282302 C33.9644379,25.6282302 40.2725112,31.9466439 40.2955359,39.7229197 L38.7029724,57.1202033 C38.6363449,57.6377138 38.2117715,58.0351006 37.6909894,58.0673863 L14.6463168,58.0673863 C14.1241374,58.034911 13.6981042,57.6371375 13.6299219,57.118411 L11.9966861,39.735604 C12.0206759,31.9600175 18.3892751,25.6282302 26.2138063,25.6282302 Z" id="Shape"></path>
        </g>
    </g>
</svg>