<svg xmlns="http://www.w3.org/2000/svg" width="61.945" height="50.307" viewBox="0 0 61.945 50.307">
  <g id="shop" transform="translate(0 -48.096)">
    <g id="Group_21" data-name="Group 21" transform="translate(0 48.096)">
      <g id="Group_20" data-name="Group 20" transform="translate(0 0)">
        <path id="Path_16" data-name="Path 16" d="M59.1,96.588H58.066V69.668a8.422,8.422,0,0,0,3.879-7.087.908.908,0,0,0-.12-.45l-7.2-12.6A2.854,2.854,0,0,0,52.153,48.1H9.792A2.853,2.853,0,0,0,7.32,49.531l-7.2,12.6a.908.908,0,0,0-.12.45,8.422,8.422,0,0,0,3.879,7.087v26.92H2.847a.907.907,0,1,0,0,1.815H59.1a.907.907,0,1,0,0-1.815ZM1.877,63.489H4.786a.907.907,0,1,0,0-1.815H2.471L8.9,50.431a1.035,1.035,0,0,1,.9-.52H52.153a1.034,1.034,0,0,1,.9.52l6.424,11.243H57.158a.907.907,0,0,0,0,1.815h2.909a6.608,6.608,0,0,1-13.091,0h6.3a.907.907,0,0,0,0-1.815H8.666a.907.907,0,1,0,0,1.815h6.3a6.608,6.608,0,0,1-13.091,0Zm43.156,0a6.607,6.607,0,0,1-13.09,0ZM30,63.489a6.607,6.607,0,0,1-13.09,0Zm21.4,33.1H41.578V93.554H51.4Zm0-4.849H41.578V75.127H51.4Zm4.849,4.849H53.216V74.219a.907.907,0,0,0-.907-.907H40.671a.907.907,0,0,0-.907.907V96.588H5.694V70.548A8.415,8.415,0,0,0,15.94,66.382a8.422,8.422,0,0,0,15.033,0,8.422,8.422,0,0,0,15.033,0,8.415,8.415,0,0,0,10.246,4.166Z" transform="translate(0 -48.096)"/>
      </g>
    </g>
    <g id="Group_23" data-name="Group 23" transform="translate(8.729 73.312)">
      <g id="Group_22" data-name="Group 22" transform="translate(0 0)">
        <path id="Path_17" data-name="Path 17" d="M99.238,256.516H73.052a.907.907,0,0,0-.907.907V275.85a.907.907,0,0,0,.907.907H99.238a.907.907,0,0,0,.907-.907V257.423A.907.907,0,0,0,99.238,256.516Zm-.907,18.427H73.96V258.331H98.331Z" transform="translate(-72.145 -256.516)"/>
      </g>
    </g>
  </g>
</svg>
