<svg xmlns="http://www.w3.org/2000/svg" width="60" height="60" viewBox="0 0 60 60">
  <g id="single" transform="translate(-16 -16)">
    <path id="Path_38" data-name="Path 38" d="M71,20H65V19a3,3,0,1,0-6,0v1H49V19a3,3,0,1,0-6,0v1H33V19a3,3,0,1,0-6,0v1H21a5.006,5.006,0,0,0-5,5V71a5.006,5.006,0,0,0,5,5H71a5.006,5.006,0,0,0,5-5V25A5.006,5.006,0,0,0,71,20ZM61,19a1,1,0,1,1,2,0v6a1,1,0,1,1-2,0ZM45,19a1,1,0,1,1,2,0v6a1,1,0,1,1-2,0ZM29,19a1,1,0,0,1,2,0v6a1,1,0,1,1-2,0Zm-8,3h6v3a3,3,0,1,0,6,0V22H43v3a3,3,0,1,0,6,0V22H59v3a3,3,0,0,0,6,0V22h6a3,3,0,0,1,3,3v7H18V25A3,3,0,0,1,21,22ZM71,74H21a3,3,0,0,1-3-3V34H74V71A3,3,0,0,1,71,74Z" transform="translate(0 0)" fill="#7e7e7e"/>
    <path id="Path_66" data-name="Path 66" d="M253.468,207.662l-6.258-.956-2.811-5.987a1.252,1.252,0,0,0-2.266,0l-2.809,5.987-6.258.956a1.251,1.251,0,0,0-.707,2.112l4.565,4.679-1.079,6.622a1.252,1.252,0,0,0,1.839,1.3l5.582-3.086,5.582,3.086a1.252,1.252,0,0,0,1.841-1.3l-1.079-6.622,4.565-4.679a1.252,1.252,0,0,0-.707-2.112Zm-6.091,5.494a1.252,1.252,0,0,0-.339,1.076l.767,4.7-3.932-2.175a1.251,1.251,0,0,0-1.211,0l-3.932,2.175.767-4.7a1.252,1.252,0,0,0-.339-1.076l-3.3-3.387,4.511-.688a1.252,1.252,0,0,0,.944-.705l1.961-4.179,1.961,4.178a1.251,1.251,0,0,0,.944.705l4.511.688Z" transform="translate(-197.193 -159.985)" fill="#7e7e7e"/>
  </g>
</svg>
