<?xml version="1.0" encoding="UTF-8"?>
<svg width="70px" height="59px" viewBox="0 0 70 59" version="1.1" xmlns="http://www.w3.org/2000/svg" xmlns:xlink="http://www.w3.org/1999/xlink">
    <!-- Generator: Sketch 63.1 (92452) - https://sketch.com -->
    <title>travel</title>
    <desc>Created with Sketch.</desc>
    <g id="Page-1" stroke="none" stroke-width="1" fill="none" fill-rule="evenodd">
        <g id="travel" transform="translate(0.000000, 0.962269)" fill="#979797" fill-rule="nonzero">
            <path d="M4.55284553,53.495935 L4.55284553,13.3597561 C4.55410002,12.2601968 5.44515611,11.3691407 6.54471545,11.3678862 L3.69918699,11.3678862 C2.59962766,11.3691407 1.70857156,12.2601968 1.70731707,13.3597561 L1.70731707,53.495935 C1.70849332,54.5955268 2.5995952,55.4866286 3.69918699,55.4878049 L6.54471545,55.4878049 C5.44512365,55.4866286 4.55402177,54.5955268 4.55284553,53.495935 L4.55284553,53.495935 Z" id="Path" fill-opacity="0.1"></path>
            <path d="M20.1359553,11.3678862 C20.6074179,11.3678862 20.9896138,10.9856902 20.9896138,10.5142276 L20.9896138,4.14550813 C20.9896138,2.80113821 22.0320732,1.70731707 23.3132724,1.70731707 L46.6867276,1.70731707 C47.9672154,1.70731707 49.0103862,2.80113821 49.0103862,4.14550813 L49.0103862,10.5142276 C49.0103862,10.9856902 49.3925821,11.3678862 49.8640447,11.3678862 C50.3355073,11.3678862 50.7177033,10.9856902 50.7177033,10.5142276 L50.7177033,4.14550813 C50.7177033,1.85969512 48.9093699,2.66453526e-15 46.6867276,2.66453526e-15 L23.3132724,2.66453526e-15 C21.0906301,2.66453526e-15 19.2822967,1.85969512 19.2822967,4.14550813 L19.2822967,10.5142276 C19.2822967,10.9856902 19.6644927,11.3678862 20.1359553,11.3678862 L20.1359553,11.3678862 Z" id="Path"></path>
            <path d="M45.7940854,11.3678862 C46.265548,11.3678862 46.6477439,10.9856902 46.6477439,10.5142276 L46.6477439,6.26556911 C46.6462543,5.00895305 45.6279372,3.99063592 44.3713211,3.98914634 L25.6286789,3.98914634 C24.3720628,3.99063592 23.3537457,5.00895305 23.3522561,6.26556911 L23.3522561,10.5142276 C23.3522561,10.9856902 23.734452,11.3678862 24.2059146,11.3678862 C24.6773772,11.3678862 25.0595732,10.9856902 25.0595732,10.5142276 L25.0595732,6.26556911 C25.0599651,5.9514232 25.314533,5.69685536 25.6286789,5.69646341 L44.3713211,5.69646341 C44.685467,5.69685536 44.9400349,5.9514232 44.9404268,6.26556911 L44.9404268,10.5142276 C44.9404268,10.9856902 45.3226228,11.3678862 45.7940854,11.3678862 L45.7940854,11.3678862 Z" id="Path"></path>
            <path d="M66.300813,9.66056911 L3.69918699,9.66056911 C1.6571575,9.66292122 0.00235211924,11.3177266 0,13.3597561 L0,53.495935 C0.00227388222,55.5379969 1.65712504,57.1928481 3.69918699,57.195122 L66.300813,57.195122 C68.342875,57.1928481 69.9977261,55.5379969 70,53.495935 L70,13.3597561 C69.9976479,11.3177266 68.3428425,9.66292122 66.300813,9.66056911 L66.300813,9.66056911 Z M57.3568902,11.3678862 L57.3568902,55.4878049 L12.6431098,55.4878049 L12.6431098,11.3678862 L57.3568902,11.3678862 Z M1.70731707,53.495935 L1.70731707,13.3597561 C1.70857156,12.2601968 2.59962766,11.3691407 3.69918699,11.3678862 L10.9357927,11.3678862 L10.9357927,55.4878049 L3.69918699,55.4878049 C2.5995952,55.4866286 1.70849332,54.5955268 1.70731707,53.495935 Z M68.2926829,53.495935 C68.2915067,54.5955268 67.4004048,55.4866286 66.300813,55.4878049 L59.0642073,55.4878049 L59.0642073,11.3678862 L66.300813,11.3678862 C67.4003723,11.3691407 68.2914284,12.2601968 68.2926829,13.3597561 L68.2926829,53.495935 Z" id="Shape"></path>
        </g>
    </g>
</svg>