<?xml version="1.0" encoding="UTF-8"?>
<svg width="57px" height="68px" viewBox="0 0 57 68" version="1.1" xmlns="http://www.w3.org/2000/svg" xmlns:xlink="http://www.w3.org/1999/xlink">
    <!-- Generator: Sketch 63.1 (92452) - https://sketch.com -->
    <title>travel-plan</title>
    <desc>Created with Sketch.</desc>
    <g id="Page-1" stroke="none" stroke-width="1" fill="none" fill-rule="evenodd">
        <g id="travel-plan" fill="#979797" fill-rule="nonzero">
            <path d="M7.93333333,68 L53.2666667,68 C55.1443033,68 56.6666667,66.4776367 56.6666667,64.6 L56.6666667,7.93333333 C56.6666667,6.05569665 55.1443033,4.53333333 53.2666667,4.53333333 L51,4.53333333 L51,3.4 C51,1.52236332 49.4776367,0 47.6,0 C45.7223633,0 44.2,1.52236332 44.2,3.4 L44.2,4.53333333 L39.6666667,4.53333333 L39.6666667,3.4 C39.6666667,1.52236332 38.1443033,0 36.2666667,0 C34.38903,0 32.8666667,1.52236332 32.8666667,3.4 L32.8666667,4.53333333 L28.3333333,4.53333333 L28.3333333,3.4 C28.3333333,1.52236332 26.81097,0 24.9333333,0 C23.0556966,0 21.5333333,1.52236332 21.5333333,3.4 L21.5333333,4.53333333 L17,4.53333333 L17,3.4 C17,1.52236332 15.4776367,0 13.6,0 C11.7223633,0 10.2,1.52236332 10.2,3.4 L10.2,4.53333333 L7.93333333,4.53333333 C6.05569665,4.53333333 4.53333333,6.05569665 4.53333333,7.93333333 L4.53333333,52.1333333 L3.4,52.1333333 C1.52236332,52.1333333 0,53.6556966 0,55.5333333 L0,57.8 C0,60.3035156 2.02981771,62.3333333 4.53333333,62.3333333 L4.53333333,64.6 C4.53333333,66.4776367 6.05569665,68 7.93333333,68 Z M46.4666667,3.4 C46.4666667,2.77412106 46.9741211,2.26666667 47.6,2.26666667 C48.2258789,2.26666667 48.7333333,2.77412106 48.7333333,3.4 L48.7333333,7.93333333 C48.7333333,8.55921228 48.2258789,9.06666667 47.6,9.06666667 C46.9741211,9.06666667 46.4666667,8.55921228 46.4666667,7.93333333 L46.4666667,3.4 Z M35.1333333,3.4 C35.1333333,2.77412106 35.6407877,2.26666667 36.2666667,2.26666667 C36.8925456,2.26666667 37.4,2.77412106 37.4,3.4 L37.4,7.93333333 C37.4,8.55921228 36.8925456,9.06666667 36.2666667,9.06666667 C35.6407877,9.06666667 35.1333333,8.55921228 35.1333333,7.93333333 L35.1333333,3.4 Z M23.8,3.4 C23.8,2.77412106 24.3074544,2.26666667 24.9333333,2.26666667 C25.5592123,2.26666667 26.0666667,2.77412106 26.0666667,3.4 L26.0666667,7.93333333 C26.0666667,8.55921228 25.5592123,9.06666667 24.9333333,9.06666667 C24.3074544,9.06666667 23.8,8.55921228 23.8,7.93333333 L23.8,3.4 Z M12.4666667,3.4 C12.4666667,2.77412106 12.9741211,2.26666667 13.6,2.26666667 C14.2258789,2.26666667 14.7333333,2.77412106 14.7333333,3.4 L14.7333333,7.93333333 C14.7333333,8.55921228 14.2258789,9.06666667 13.6,9.06666667 C12.9741211,9.06666667 12.4666667,8.55921228 12.4666667,7.93333333 L12.4666667,3.4 Z M6.8,7.93333333 C6.8,7.30745439 7.30745439,6.8 7.93333333,6.8 L10.2,6.8 L10.2,7.93333333 C10.2,9.81097002 11.7223633,11.3333333 13.6,11.3333333 C15.4776367,11.3333333 17,9.81097002 17,7.93333333 L17,6.8 L21.5333333,6.8 L21.5333333,7.93333333 C21.5333333,9.81097002 23.0556967,11.3333333 24.9333333,11.3333333 C26.81097,11.3333333 28.3333333,9.81097002 28.3333333,7.93333333 L28.3333333,6.8 L32.8666667,6.8 L32.8666667,7.93333333 C32.8666667,9.81097002 34.38903,11.3333333 36.2666667,11.3333333 C38.1443034,11.3333333 39.6666667,9.81097002 39.6666667,7.93333333 L39.6666667,6.8 L44.2,6.8 L44.2,7.93333333 C44.2,9.81097002 45.7223633,11.3333333 47.6,11.3333333 C49.4776367,11.3333333 51,9.81097002 51,7.93333333 L51,6.8 L53.2666667,6.8 C53.8925456,6.8 54.4,7.30745439 54.4,7.93333333 L54.4,57.8 C54.4,59.0517579 53.3850912,60.0666667 52.1333333,60.0666667 C50.8815754,60.0666667 49.8666667,59.0517579 49.8666667,57.8 L49.8666667,55.5333333 C49.8666667,53.6556966 48.3443034,52.1333333 46.4666667,52.1333333 L6.8,52.1333333 L6.8,7.93333333 Z M46.4666667,62.3333333 L46.4666667,60.0666667 L4.53333333,60.0666667 C3.28157545,60.0666667 2.26666667,59.0517579 2.26666667,57.8 L2.26666667,55.5333333 C2.26666667,54.9074544 2.77412106,54.4 3.4,54.4 L46.4666667,54.4 C47.0925456,54.4 47.6,54.9074544 47.6,55.5333333 L47.6,57.8 C47.6,60.3035156 49.6298177,62.3333333 52.1333333,62.3333333 C52.931315,62.3289063 53.7138021,62.1108725 54.4,61.7030273 L54.4,64.6 C54.4,65.2258789 53.8925456,65.7333333 53.2666667,65.7333333 L7.93333333,65.7333333 C7.30745439,65.7333333 6.8,65.2258789 6.8,64.6 L6.8,62.3333333 L46.4666667,62.3333333 Z" id="Shape"></path>
            <path d="M17,14.7333333 L12.4666667,14.7333333 C11.8407877,14.7333333 11.3333333,15.2407877 11.3333333,15.8666667 L11.3333333,20.4 C11.3333333,21.0258789 11.8407877,21.5333333 12.4666667,21.5333333 L17,21.5333333 C17.6258789,21.5333333 18.1333333,21.0258789 18.1333333,20.4 L18.1333333,15.8666667 C18.1333333,15.2407877 17.6258789,14.7333333 17,14.7333333 Z M15.8666667,19.2666667 L13.6,19.2666667 L13.6,17 L15.8666667,17 L15.8666667,19.2666667 Z" id="Shape"></path>
            <path d="M27.2,14.7333333 L22.6666667,14.7333333 C22.0407877,14.7333333 21.5333333,15.2407877 21.5333333,15.8666667 L21.5333333,20.4 C21.5333333,21.0258789 22.0407877,21.5333333 22.6666667,21.5333333 L27.2,21.5333333 C27.8258789,21.5333333 28.3333333,21.0258789 28.3333333,20.4 L28.3333333,15.8666667 C28.3333333,15.2407877 27.8258789,14.7333333 27.2,14.7333333 Z M26.0666667,19.2666667 L23.8,19.2666667 L23.8,17 L26.0666667,17 L26.0666667,19.2666667 Z" id="Shape"></path>
            <path d="M17,23.8 L12.4666667,23.8 C11.8407877,23.8 11.3333333,24.3074544 11.3333333,24.9333333 L11.3333333,29.4666667 C11.3333333,30.0925456 11.8407877,30.6 12.4666667,30.6 L17,30.6 C17.6258789,30.6 18.1333333,30.0925456 18.1333333,29.4666667 L18.1333333,24.9333333 C18.1333333,24.3074544 17.6258789,23.8 17,23.8 Z M15.8666667,28.3333333 L13.6,28.3333333 L13.6,26.0666667 L15.8666667,26.0666667 L15.8666667,28.3333333 Z" id="Shape"></path>
            <path d="M27.2,23.8 L22.6666667,23.8 C22.0407877,23.8 21.5333333,24.3074544 21.5333333,24.9333333 L21.5333333,29.4666667 C21.5333333,30.0925456 22.0407877,30.6 22.6666667,30.6 L27.2,30.6 C27.8258789,30.6 28.3333333,30.0925456 28.3333333,29.4666667 L28.3333333,24.9333333 C28.3333333,24.3074544 27.8258789,23.8 27.2,23.8 Z M26.0666667,28.3333333 L23.8,28.3333333 L23.8,26.0666667 L26.0666667,26.0666667 L26.0666667,28.3333333 Z" id="Shape"></path>
            <path d="M17,32.8666667 L12.4666667,32.8666667 C11.8407877,32.8666667 11.3333333,33.3741211 11.3333333,34 L11.3333333,38.5333333 C11.3333333,39.1592123 11.8407877,39.6666667 12.4666667,39.6666667 L17,39.6666667 C17.6258789,39.6666667 18.1333333,39.1592123 18.1333333,38.5333333 L18.1333333,34 C18.1333333,33.3741211 17.6258789,32.8666667 17,32.8666667 Z M15.8666667,37.4 L13.6,37.4 L13.6,35.1333333 L15.8666667,35.1333333 L15.8666667,37.4 Z" id="Shape"></path>
            <path d="M27.2,32.8666667 L22.6666667,32.8666667 C22.0407877,32.8666667 21.5333333,33.3741211 21.5333333,34 L21.5333333,38.5333333 C21.5333333,39.1592123 22.0407877,39.6666667 22.6666667,39.6666667 L27.2,39.6666667 C27.8258789,39.6666667 28.3333333,39.1592123 28.3333333,38.5333333 L28.3333333,34 C28.3333333,33.3741211 27.8258789,32.8666667 27.2,32.8666667 Z M26.0666667,37.4 L23.8,37.4 L23.8,35.1333333 L26.0666667,35.1333333 L26.0666667,37.4 Z" id="Shape"></path>
            <path d="M37.4,32.8666667 L32.8666667,32.8666667 C32.2407877,32.8666667 31.7333333,33.3741211 31.7333333,34 L31.7333333,38.5333333 C31.7333333,39.1592123 32.2407877,39.6666667 32.8666667,39.6666667 L37.4,39.6666667 C38.0258789,39.6666667 38.5333333,39.1592123 38.5333333,38.5333333 L38.5333333,34 C38.5333333,33.3741211 38.0258789,32.8666667 37.4,32.8666667 Z M36.2666667,37.4 L34,37.4 L34,35.1333333 L36.2666667,35.1333333 L36.2666667,37.4 Z" id="Shape"></path>
            <path d="M17,41.9333333 L12.4666667,41.9333333 C11.8407877,41.9333333 11.3333333,42.4407877 11.3333333,43.0666667 L11.3333333,47.6 C11.3333333,48.2258789 11.8407877,48.7333333 12.4666667,48.7333333 L17,48.7333333 C17.6258789,48.7333333 18.1333333,48.2258789 18.1333333,47.6 L18.1333333,43.0666667 C18.1333333,42.4407877 17.6258789,41.9333333 17,41.9333333 Z M15.8666667,46.4666667 L13.6,46.4666667 L13.6,44.2 L15.8666667,44.2 L15.8666667,46.4666667 Z" id="Shape"></path>
            <path d="M27.2,41.9333333 L22.6666667,41.9333333 C22.0407877,41.9333333 21.5333333,42.4407877 21.5333333,43.0666667 L21.5333333,47.6 C21.5333333,48.2258789 22.0407877,48.7333333 22.6666667,48.7333333 L27.2,48.7333333 C27.8258789,48.7333333 28.3333333,48.2258789 28.3333333,47.6 L28.3333333,43.0666667 C28.3333333,42.4407877 27.8258789,41.9333333 27.2,41.9333333 Z M26.0666667,46.4666667 L23.8,46.4666667 L23.8,44.2 L26.0666667,44.2 L26.0666667,46.4666667 Z" id="Shape"></path>
            <path d="M37.4,41.9333333 L32.8666667,41.9333333 C32.2407877,41.9333333 31.7333333,42.4407877 31.7333333,43.0666667 L31.7333333,47.6 C31.7333333,48.2258789 32.2407877,48.7333333 32.8666667,48.7333333 L37.4,48.7333333 C38.0258789,48.7333333 38.5333333,48.2258789 38.5333333,47.6 L38.5333333,43.0666667 C38.5333333,42.4407877 38.0258789,41.9333333 37.4,41.9333333 Z M36.2666667,46.4666667 L34,46.4666667 L34,44.2 L36.2666667,44.2 L36.2666667,46.4666667 Z" id="Shape"></path>
            <path d="M47.6,32.8666667 L43.0666667,32.8666667 C42.4407877,32.8666667 41.9333333,33.3741211 41.9333333,34 L41.9333333,38.5333333 C41.9333333,39.1592123 42.4407877,39.6666667 43.0666667,39.6666667 L47.6,39.6666667 C48.2258789,39.6666667 48.7333333,39.1592123 48.7333333,38.5333333 L48.7333333,34 C48.7333333,33.3741211 48.2258789,32.8666667 47.6,32.8666667 Z M46.4666667,37.4 L44.2,37.4 L44.2,35.1333333 L46.4666667,35.1333333 L46.4666667,37.4 Z" id="Shape"></path>
            <path d="M48.7333333,47.6 L48.7333333,43.0666667 C48.7333333,42.4407877 48.2258789,41.9333333 47.6,41.9333333 L43.0666667,41.9333333 C42.4407877,41.9333333 41.9333333,42.4407877 41.9333333,43.0666667 L41.9333333,47.6 C41.9333333,48.2258789 42.4407877,48.7333333 43.0666667,48.7333333 L47.6,48.7333333 C48.2258789,48.7333333 48.7333333,48.2258789 48.7333333,47.6 Z M46.4666667,46.4666667 L44.2,46.4666667 L44.2,44.2 L46.4666667,44.2 L46.4666667,46.4666667 Z" id="Shape"></path>
            <path d="M37.4,23.8 C37.7004883,23.8 37.9888021,23.6804688 38.2013021,23.4679688 L41.9333333,19.7359375 L41.9333333,23.8 L44.2,23.8 L44.2,17.4692708 L46.1346354,15.5346354 L44.5320313,13.9320312 L42.5973958,15.8666667 L36.2666667,15.8666667 L36.2666667,18.1333333 L40.3307292,18.1333333 L37.4,21.0640625 L35.9346354,19.5986979 L34.3320312,21.2013021 L36.5986979,23.4679688 C36.8111979,23.6804688 37.0995117,23.8 37.4,23.8 Z" id="Path"></path>
            <polygon id="Path" points="31.7333333 26.0666667 34 26.0666667 34 28.3333333 31.7333333 28.3333333"></polygon>
            <polygon id="Path" points="36.2666667 26.0666667 48.7333333 26.0666667 48.7333333 28.3333333 36.2666667 28.3333333"></polygon>
        </g>
    </g>
</svg>