<svg id="tray" xmlns="http://www.w3.org/2000/svg" width="63.697" height="63.698" viewBox="0 0 63.697 63.698">
  <g id="Group_3" data-name="Group 3" transform="translate(10.616 39.279)">
    <g id="Group_2" data-name="Group 2">
      <path id="Path_1" data-name="Path 1" d="M131.492,318.049c-.062-.1-.126-.2-.191-.289a4.137,4.137,0,0,0-5.774-.953l-11.869,8.475h-12.4a1.062,1.062,0,0,1,0-2.123h6.9a3.72,3.72,0,0,0,3.716-3.716c0-.012,0-.109,0-.12a3.728,3.728,0,0,0-3.8-3.6H94.263a5.327,5.327,0,0,0-3.356,1.233l-5.191,4.321a1.065,1.065,0,0,0-.382.816v12.74A1.061,1.061,0,0,0,86.4,335.9h26.34a7.448,7.448,0,0,0,4.731-1.708l12.87-10.634A4.172,4.172,0,0,0,131.492,318.049Zm-2.447,3.824-12.932,10.681a5.327,5.327,0,0,1-3.379,1.221H87.457v-11.18l4.81-4a3.194,3.194,0,0,1,2.005-.74h13.835a1.622,1.622,0,0,1,1.643,1.594,1.594,1.594,0,0,1-1.592,1.592h-6.9a3.185,3.185,0,1,0,0,6.37H114a1.076,1.076,0,0,0,.619-.2l12.147-8.675a2.015,2.015,0,0,1,2.819.471c.032.044.06.088.088.134A2.061,2.061,0,0,1,129.045,321.873Z" transform="translate(-85.334 -315.726)"/>
    </g>
  </g>
  <g id="Group_5" data-name="Group 5" transform="translate(0 43.527)">
    <g id="Group_4" data-name="Group 4">
      <path id="Path_2" data-name="Path 2" d="M11.646,349.867H0v2.123H10.584v15.924H0v2.123H11.646a1.061,1.061,0,0,0,1.062-1.062V350.929A1.061,1.061,0,0,0,11.646,349.867Z" transform="translate(0 -349.867)"/>
    </g>
  </g>
  <g id="Group_7" data-name="Group 7" transform="translate(2.123 53.081)">
    <g id="Group_6" data-name="Group 6">
      <path id="Path_3" data-name="Path 3" d="M20.252,426.667a3.185,3.185,0,1,0,3.185,3.185A3.189,3.189,0,0,0,20.252,426.667Zm0,4.246a1.062,1.062,0,1,1,1.062-1.062A1.063,1.063,0,0,1,20.252,430.913Z" transform="translate(-17.067 -426.667)"/>
    </g>
  </g>
  <g id="Group_9" data-name="Group 9" transform="translate(0 32.91)">
    <g id="Group_8" data-name="Group 8">
      <path id="Path_4" data-name="Path 4" d="M62.636,264.533H1.062A1.061,1.061,0,0,0,0,265.595a7.44,7.44,0,0,0,7.431,7.431H56.266a7.441,7.441,0,0,0,7.431-7.431A1.06,1.06,0,0,0,62.636,264.533Zm-6.37,6.37H7.431a5.316,5.316,0,0,1-5.2-4.246H61.467A5.316,5.316,0,0,1,56.266,270.9Z" transform="translate(0 -264.533)"/>
    </g>
  </g>
  <g id="Group_11" data-name="Group 11" transform="translate(4.246 5.308)">
    <g id="Group_10" data-name="Group 10">
      <path id="Path_5" data-name="Path 5" d="M61.735,42.667a27.634,27.634,0,0,0-27.6,27.6v1.062a1.061,1.061,0,0,0,1.062,1.062H88.276a1.061,1.061,0,0,0,1.062-1.062V70.269A27.633,27.633,0,0,0,61.735,42.667Zm-25.479,27.6a25.479,25.479,0,1,1,50.958,0Z" transform="translate(-34.133 -42.667)"/>
    </g>
  </g>
  <g id="Group_13" data-name="Group 13" transform="translate(12.343 17.418)">
    <g id="Group_12" data-name="Group 12">
      <path id="Path_6" data-name="Path 6" d="M101.254,140.006a23.732,23.732,0,0,0-2.045,2.655l1.77,1.173a21.694,21.694,0,0,1,1.862-2.418Z" transform="translate(-99.209 -140.006)"/>
    </g>
  </g>
  <g id="Group_15" data-name="Group 15" transform="translate(15.866 9.555)">
    <g id="Group_14" data-name="Group 14">
      <path id="Path_7" data-name="Path 7" d="M143.514,76.8a23.272,23.272,0,0,0-15.983,6.34l1.454,1.547a21.153,21.153,0,0,1,14.529-5.764Z" transform="translate(-127.531 -76.8)"/>
    </g>
  </g>
  <g id="Group_17" data-name="Group 17" transform="translate(28.664)">
    <g id="Group_16" data-name="Group 16">
      <rect id="Rectangle_1" data-name="Rectangle 1" width="6.37" height="2.123"/>
    </g>
  </g>
  <g id="Group_19" data-name="Group 19" transform="translate(30.787 1.062)">
    <g id="Group_18" data-name="Group 18">
      <rect id="Rectangle_2" data-name="Rectangle 2" width="2.123" height="5.308"/>
    </g>
  </g>
</svg>
