<?xml version="1.0" encoding="UTF-8"?>
<svg width="71px" height="72px" viewBox="0 0 71 72" version="1.1" xmlns="http://www.w3.org/2000/svg" xmlns:xlink="http://www.w3.org/1999/xlink">
    <!-- Generator: Sketch 63.1 (92452) - https://sketch.com -->
    <title>university-students</title>
    <desc>Created with Sketch.</desc>
    <g id="Page-1" stroke="none" stroke-width="1" fill="none" fill-rule="evenodd">
        <g id="university-students" transform="translate(0.150227, 0.000000)" fill="#979797" fill-rule="nonzero">
            <polygon id="Path" fill-opacity="0.1" points="11.4968314 65.3068047 11.4968314 37.5138978 6.95901635 40.3500322 6.95901635 69.8446197 63.8329644 69.8446197 63.8329644 65.3068047"></polygon>
            <path d="M40.8413684,71.9622667 C41.4338717,71.9429402 41.9032925,71.4554131 41.9002072,70.8626028 L41.9002072,54.1589058 C41.9026045,53.2315117 41.1634497,52.4721982 40.2363264,52.4496621 L30.2531334,52.4496621 C29.32601,52.4721982 28.5868553,53.2315117 28.5892526,54.1589058 L28.5892526,70.8626028 C28.5861673,71.4554131 29.0555881,71.9429402 29.6480914,71.9622667 L40.8413684,71.9622667 Z M30.7069149,54.5673091 L39.7825449,54.5673091 L39.7825449,69.8446197 L30.7069149,69.8446197 L30.7069149,54.5673091 Z" id="Shape"></path>
            <path d="M70.0140735,38.474402 L52.7909479,27.4479653 L52.7909479,16.8564026 C52.7909479,14.8397976 51.1470488,13.2731926 49.1304438,13.2731926 L21.7188647,13.2731926 C19.702411,13.2731926 18.0010329,14.8397976 18.0010329,16.8564026 L18.0010329,27.3806544 L0.600932483,38.4731919 C0.215057536,38.7257117 -0.0120707781,39.1604397 0.000495575282,39.6214104 L0.000495575282,42.2256624 C0.000495575282,42.7199443 0.268929975,43.1753974 0.700949308,43.4155513 C1.13296864,43.6557052 1.66121623,43.6428236 2.08101648,43.3818977 L4.84136935,41.6661498 L4.84136935,70.2575608 C4.83925122,71.1840754 5.57894126,71.9419215 6.50523485,71.9622667 L64.2867459,71.9622667 C65.2130395,71.9419215 65.9527295,71.1840754 65.9506114,70.2575608 L65.9506114,41.7546372 L68.5580399,43.3800825 C68.9778273,43.6418391 69.5065742,43.6552623 69.9391026,43.4151434 C70.371631,43.1750244 70.639696,42.7191622 70.639696,42.2244523 L70.639696,39.6209566 C70.6413825,39.156822 70.4052932,38.7241438 70.0140735,38.474402 Z M2.11868034,40.0366204 L18.0010329,29.8906711 L18.0010329,30.9555451 L2.11868034,40.8650742 L2.11868034,40.0366204 Z M63.8329644,69.8446197 L6.95901635,69.8446197 L6.95901635,40.3500322 L18.0010329,33.4490744 L18.0010329,43.1220321 C18.0010329,43.7068042 18.4750843,44.1808556 19.0598564,44.1808556 C19.6446284,44.1808556 20.1186799,43.7068042 20.1186799,43.1220321 L20.1186799,16.8564026 C20.1186799,16.0075286 20.870142,15.3908396 21.7188647,15.3908396 L49.1304438,15.3908396 C49.9791665,15.3908396 50.6733009,16.0075286 50.6733009,16.8564026 L50.6733009,43.1908557 C50.6733009,43.7756277 51.1473523,44.2496792 51.7321244,44.2496792 C52.3168965,44.2496792 52.7909479,43.7756277 52.7909479,43.1908557 L52.7909479,33.5493601 L63.8329644,40.4345868 L63.8329644,69.8446197 Z M68.5220399,40.8622003 L52.7909479,31.0540156 L52.7909479,29.9623686 L68.5220399,40.0348053 L68.5220399,40.8622003 Z" id="Shape"></path>
            <path d="M59.415099,46.8158135 L35.9405282,32.0471921 C35.5966059,31.8307314 35.159141,31.8302025 34.8146963,32.0458307 L11.2280414,46.8147547 C10.8295327,47.0625836 10.5878177,47.4991359 10.5892619,47.9684186 L10.5892619,50.5690403 C10.5892619,51.0641093 10.8580539,51.5201461 11.2911597,51.759964 C11.7242655,51.9997819 12.2534222,51.985572 12.673033,51.7228554 L16.9422094,49.0497799 L16.9422094,50.1852924 C16.4708581,50.4917788 16.1863266,51.015715 16.1859069,51.5779479 L16.1859069,53.4044184 C16.1863969,54.0134685 16.5192889,54.5736829 17.0539909,54.8652923 L16.4094699,66.9649223 C15.6587622,67.1423186 15.1281274,67.8120275 15.1270834,68.5834096 L15.1270834,70.2575608 C15.1249652,71.1840754 15.8646553,71.9419215 16.7909489,71.9622667 L22.3875874,71.9622667 C23.313881,71.9419215 24.053571,71.1840754 24.0514529,70.2575608 L24.0514529,68.5828046 C24.0505547,67.8573445 23.5803861,67.2158329 22.8888647,66.9965357 L22.2384445,54.7957125 C22.7084797,54.4888128 22.9919371,53.9654718 22.9921756,53.4041159 L22.9921756,51.5779479 C22.9917558,51.015715 22.7072244,50.4917788 22.2358731,50.1852924 L22.2358731,45.7350573 L35.3752677,37.5078474 L48.4043934,45.7048052 L48.4043934,50.1852924 C47.9330421,50.4917788 47.6485107,51.015715 47.6480909,51.5779479 L47.6480909,53.4044184 C47.648922,54.0485697 48.0214838,54.6343692 48.604511,54.9082503 L47.9631665,66.9460147 C47.1693778,67.0871226 46.5906629,67.7765725 46.5892619,68.5828046 L46.5892619,70.2575608 C46.5871493,71.1840754 47.3268393,71.9419215 48.2531329,71.9622667 L54.0010319,71.9622667 C54.9273255,71.9419215 55.6670155,71.1840754 55.6648974,70.2575608 L55.6648974,68.5828046 C55.66379,67.8339428 55.1629807,67.1779148 54.4408974,66.9794433 L53.7936538,54.8309562 C54.2967002,54.5316133 54.6052705,53.9897912 54.6060739,53.4044184 L54.6060739,51.5779479 C54.6056541,51.015715 54.3211227,50.4917788 53.8497714,50.1852924 L53.8497714,49.1308555 L57.9651158,51.7199815 L57.9651158,51.7199815 C58.3846153,51.9839324 58.9144206,51.9990367 59.3482765,51.7594141 C59.7821323,51.5197916 60.0514571,51.0633098 60.0514571,50.567679 L60.0514571,47.968116 C60.0527466,47.499848 59.812116,47.0641161 59.415099,46.8158135 Z M20.1327471,55.0210906 L20.7641084,66.9706702 L18.5325623,66.9706702 L19.1639236,55.0210906 L20.1327471,55.0210906 Z M20.8749824,51.9958806 L20.8749824,52.9034436 L18.3035539,52.9034436 L18.3035539,51.9958806 L20.8749824,51.9958806 Z M21.9338059,69.8446197 L17.2447304,69.8446197 L17.2447304,69.0883172 L21.9338059,69.0883172 L21.9338059,69.8446197 Z M20.1186799,49.8782336 L19.0598564,49.8782336 L19.0598564,47.7238303 L20.1186799,47.0608556 L20.1186799,49.8782336 Z M51.6855362,55.0210906 L52.3170488,66.9706702 L50.0852001,66.9706702 L50.7165614,55.0210906 L51.6855362,55.0210906 Z M52.4884269,51.9958806 L52.4884269,52.9034436 L49.7657379,52.9034436 L49.7657379,51.9958806 L52.4884269,51.9958806 Z M53.5472504,69.8446197 L48.7069144,69.8446197 L48.7069144,69.0883172 L53.5472504,69.0883172 L53.5472504,69.8446197 Z M51.7321244,49.8782336 L50.5220404,49.8782336 L50.5220404,47.0371077 L51.7321244,47.7984018 L51.7321244,49.8782336 Z M57.9338049,49.1975614 L35.9405282,35.3616122 C35.5966059,35.1451515 35.159141,35.1446225 34.8146963,35.3602508 L12.7069154,49.203158 L12.7069154,48.3872589 L35.3757215,34.1934273 L57.9338049,48.3857463 L57.9338049,49.1975614 Z" id="Shape"></path>
            <path d="M49.0094354,18.7185706 C49.0094354,17.7996431 48.2644974,17.0547051 47.3455699,17.0547051 L23.4464109,17.0547051 C22.5274833,17.0547051 21.7825454,17.7996431 21.7825454,18.7185706 L21.7825454,25.0715116 C21.7825454,25.9904391 22.5274833,26.7353771 23.4464109,26.7353771 L47.3455699,26.7353771 C48.2644974,26.7353771 49.0094354,25.9904391 49.0094354,25.0715116 L49.0094354,18.7185706 Z M23.9001924,19.1723521 L46.8917884,19.1723521 L46.8917884,24.7689906 L23.9001924,24.7689906 L23.9001924,19.1723521 Z" id="Shape"></path>
            <path d="M35.3959904,15.2891925 C35.9807625,15.2891925 36.4548139,14.8151411 36.4548139,14.230369 L36.4548139,10.3236128 C38.041234,10.6932935 40.616444,11.2372263 42.03436,11.2372263 C42.1390322,11.2372263 42.2376541,11.234201 42.3288642,11.2279994 L42.3288642,11.2279994 C43.4097717,11.1541842 44.3022086,10.6631927 44.7771666,9.88102461 C45.3038557,9.01354564 45.283133,7.91342802 44.7154523,6.61137764 C44.5421078,6.21341126 44.7019901,5.92132723 45.9467128,5.07441969 C46.7409817,4.53396593 47.729469,3.86146174 47.451301,2.74500799 C47.1204943,1.41633576 45.2681582,0.731730733 40.8445449,0.303663518 C38.1309315,0.0410752894 35.5201753,0.00114251736 35.4108139,4.1142212e-05 C35.1276816,-0.0024370624 34.8550444,0.107128944 34.6523938,0.304873602 C34.4505663,0.503976669 34.3370157,0.775702483 34.3371667,1.05920972 L34.3371667,14.230369 C34.3371667,14.8151411 34.8112183,15.2891925 35.3959904,15.2891925 Z M44.9633683,3.18184832 C44.8904607,3.23236932 44.8189145,3.28092394 44.7555364,3.32403319 C43.7360406,4.0178651 41.8380238,5.30932725 42.7740238,7.45798266 C43.0350994,8.05652046 43.1067969,8.55159607 42.9668809,8.7824196 C42.8443599,8.9842011 42.48557,9.09522631 42.1842591,9.1151927 L42.1842591,9.1151927 C41.1866961,9.1837137 38.4187802,8.61905826 36.4543601,8.14712549 L36.4543601,2.14707523 C37.3619231,2.1789912 38.7370323,2.24297439 40.1620575,2.3677643 C42.9759566,2.6140164 44.3300406,2.95117605 44.9633683,3.18184832 Z" id="Shape"></path>
        </g>
    </g>
</svg>