<svg xmlns="http://www.w3.org/2000/svg" width="60" height="60" viewBox="0 0 60 60">
  <g id="weekly" transform="translate(-16 -16)">
    <path id="Path_38" data-name="Path 38" d="M71,20H65V19a3,3,0,1,0-6,0v1H49V19a3,3,0,1,0-6,0v1H33V19a3,3,0,1,0-6,0v1H21a5.006,5.006,0,0,0-5,5V71a5.006,5.006,0,0,0,5,5H71a5.006,5.006,0,0,0,5-5V25A5.006,5.006,0,0,0,71,20ZM61,19a1,1,0,1,1,2,0v6a1,1,0,1,1-2,0ZM45,19a1,1,0,1,1,2,0v6a1,1,0,1,1-2,0ZM29,19a1,1,0,0,1,2,0v6a1,1,0,1,1-2,0Zm-8,3h6v3a3,3,0,1,0,6,0V22H43v3a3,3,0,1,0,6,0V22H59v3a3,3,0,0,0,6,0V22h6a3,3,0,0,1,3,3v7H18V25A3,3,0,0,1,21,22ZM71,74H21a3,3,0,0,1-3-3V34H74V71A3,3,0,0,1,71,74Z" transform="translate(0 0)" fill="#7e7e7e"/>
    <path id="Path_39" data-name="Path 39" d="M404.485,216H400.9a.9.9,0,0,0-.9.9v3.588a.9.9,0,0,0,.9.9h3.588a.9.9,0,0,0,.9-.9V216.9A.9.9,0,0,0,404.485,216Zm-.9,3.588h-1.794v-1.794h1.794Z" transform="translate(-340.765 -170.714)" fill="#7e7e7e"/>
    <path id="Path_41" data-name="Path 41" d="M164.485,216H160.9a.9.9,0,0,0-.9.9v3.588a.9.9,0,0,0,.9.9h3.588a.9.9,0,0,0,.9-.9V216.9A.9.9,0,0,0,164.485,216Zm-.9,3.588h-1.794v-1.794h1.794Z" transform="translate(-131.794 -170.714)" fill="#7e7e7e"/>
    <path id="Path_43" data-name="Path 43" d="M164.485,296H160.9a.9.9,0,0,0-.9.9v3.588a.9.9,0,0,0,.9.9h3.588a.9.9,0,0,0,.9-.9V296.9A.9.9,0,0,0,164.485,296Zm-.9,3.588h-1.794v-1.794h1.794Z" transform="translate(-131.794 -240.6)" fill="#7e7e7e"/>
    <path id="Path_47" data-name="Path 47" d="M404.485,296H400.9a.9.9,0,0,0-.9.9v3.588a.9.9,0,0,0,.9.9h3.588a.9.9,0,0,0,.9-.9V296.9A.9.9,0,0,0,404.485,296Zm-.9,3.588h-1.794v-1.794h1.794Z" transform="translate(-340.765 -240.6)" fill="#7e7e7e"/>
    <path id="Path_62" data-name="Path 62" d="M244.485,376H240.9a.9.9,0,0,0-.9.9v3.588a.9.9,0,0,0,.9.9h3.588a.9.9,0,0,0,.9-.9V376.9A.9.9,0,0,0,244.485,376Zm-.9,3.588h-1.794v-1.794h1.794Z" transform="translate(-201.68 -320.485)" fill="#7e7e7e"/>
    <path id="Path_63" data-name="Path 63" d="M244.485,376H240.9a.9.9,0,0,0-.9.9v3.588a.9.9,0,0,0,.9.9h3.588a.9.9,0,0,0,.9-.9V376.9A.9.9,0,0,0,244.485,376Zm-.9,3.588h-1.794v-1.794h1.794Z" transform="translate(-201.68 -330.485)" fill="#7e7e7e"/>
    <path id="Path_64" data-name="Path 64" d="M244.485,376H240.9a.9.9,0,0,0-.9.9v3.588a.9.9,0,0,0,.9.9h3.588a.9.9,0,0,0,.9-.9V376.9A.9.9,0,0,0,244.485,376Zm-.9,3.588h-1.794v-1.794h1.794Z" transform="translate(-191.68 -320.485)" fill="#7e7e7e"/>
    <path id="Path_65" data-name="Path 65" d="M244.485,376H240.9a.9.9,0,0,0-.9.9v3.588a.9.9,0,0,0,.9.9h3.588a.9.9,0,0,0,.9-.9V376.9A.9.9,0,0,0,244.485,376Zm-.9,3.588h-1.794v-1.794h1.794Z" transform="translate(-191.68 -330.485)" fill="#7e7e7e"/>
  </g>
</svg>
